<?xml version="1.0" encoding="UTF-8"?>
<svg version="1.1" xmlns="http://www.w3.org/2000/svg" width="499" height="500">
<path d="M0 0 C0.94061279 0.2683667 1.88122559 0.5367334 2.8503418 0.81323242 C9.47839378 2.80087462 15.62711683 5.48271372 21.875 8.4375 C23.35191682 9.08846191 24.83070113 9.73522908 26.3125 10.375 C35.53239593 14.49073562 44.35926387 19.18792245 53.125 24.1875 C54.41349854 24.9136853 54.41349854 24.9136853 55.72802734 25.65454102 C56.52418457 26.11401123 57.3203418 26.57348145 58.140625 27.046875 C58.86024414 27.45905273 59.57986328 27.87123047 60.32128906 28.29589844 C60.83401367 28.67262695 61.34673828 29.04935547 61.875 29.4375 C61.875 30.0975 61.875 30.7575 61.875 31.4375 C62.98294922 31.83582031 62.98294922 31.83582031 64.11328125 32.2421875 C66.84250819 33.42343707 68.75745498 34.7028952 71.0625 36.5625 C72.22072266 37.490625 72.22072266 37.490625 73.40234375 38.4375 C74.21832031 39.0975 75.03429687 39.7575 75.875 40.4375 C77.17630859 41.4584375 77.17630859 41.4584375 78.50390625 42.5 C82.89033493 45.95161601 86.97371684 49.43868476 90.875 53.4375 C92.53684511 54.92208163 94.20407054 56.40065047 95.875 57.875 C99.60105777 61.20361161 102.77240338 64.53709283 105.875 68.4375 C107.03128906 69.58412109 107.03128906 69.58412109 108.2109375 70.75390625 C110.87197012 73.43444791 113.28854306 76.20885499 115.6875 79.125 C116.47769531 80.07761719 117.26789063 81.03023438 118.08203125 82.01171875 C119.875 84.4375 119.875 84.4375 119.875 86.4375 C120.535 86.4375 121.195 86.4375 121.875 86.4375 C123.3828125 88.3359375 123.3828125 88.3359375 125 90.8125 C125.80824219 92.03066406 125.80824219 92.03066406 126.6328125 93.2734375 C127.875 95.4375 127.875 95.4375 127.875 97.4375 C128.535 97.4375 129.195 97.4375 129.875 97.4375 C131.74574227 100.68778406 133.60892437 103.94214498 135.4609375 107.203125 C137.07127908 110.03806595 138.70442608 112.85817843 140.3515625 115.671875 C157.59875772 145.46004884 167.30357872 180.17623357 169.875 214.4375 C169.97554688 215.63681152 169.97554688 215.63681152 170.078125 216.86035156 C172.78192184 250.43682862 167.64994701 283.6150776 156.875 315.4375 C156.51148438 316.52675781 156.14796875 317.61601562 155.7734375 318.73828125 C149.92435648 334.96001314 141.79509108 350.69907679 132.875 365.4375 C132.3696875 366.30246094 131.864375 367.16742188 131.34375 368.05859375 C130.25123579 369.89109578 129.07466586 371.6732855 127.875 373.4375 C127.215 373.4375 126.555 373.4375 125.875 373.4375 C125.62878906 374.15550781 125.38257813 374.87351562 125.12890625 375.61328125 C123.73383684 378.75544692 122.01028193 380.98845942 119.8125 383.625 C117.06579836 386.85032987 117.06579836 386.85032987 114.875 390.4375 C114.215 390.4375 113.555 390.4375 112.875 390.4375 C112.58625 391.035625 112.2975 391.63375 112 392.25 C110.875 394.4375 110.875 394.4375 108.875 397.4375 C108.215 397.4375 107.555 397.4375 106.875 397.4375 C106.875 398.0975 106.875 398.7575 106.875 399.4375 C106.215 399.4375 105.555 399.4375 104.875 399.4375 C104.6171875 400.02015625 104.359375 400.6028125 104.09375 401.203125 C102.77665983 403.6177903 101.32411616 405.25490177 99.375 407.1875 C98.7665625 407.80109375 98.158125 408.4146875 97.53125 409.046875 C95.875 410.4375 95.875 410.4375 93.875 410.4375 C93.875 411.0975 93.875 411.7575 93.875 412.4375 C93.215 412.4375 92.555 412.4375 91.875 412.4375 C91.875 413.0975 91.875 413.7575 91.875 414.4375 C91.215 414.4375 90.555 414.4375 89.875 414.4375 C89.6378125 415.02015625 89.400625 415.6028125 89.15625 416.203125 C87.6023194 418.91302837 85.85570569 420.30280802 83.375 422.1875 C82.5809375 422.80109375 81.786875 423.4146875 80.96875 424.046875 C78.875 425.4375 78.875 425.4375 76.875 425.4375 C76.875 426.0975 76.875 426.7575 76.875 427.4375 C75.27368164 428.76269531 75.27368164 428.76269531 73.03515625 430.265625 C72.21853516 430.81863281 71.40191406 431.37164062 70.56054688 431.94140625 C69.69494141 432.51761719 68.82933594 433.09382813 67.9375 433.6875 C67.10669922 434.24824219 66.27589844 434.80898438 65.41992188 435.38671875 C63.73931168 436.51933231 62.05568006 437.64747477 60.36914062 438.77124023 C58.74208134 439.85822923 57.12066839 440.95373209 55.50585938 442.05883789 C50.89522806 445.19783378 46.27140249 447.95038728 41.25 450.375 C40.56615234 450.70999512 39.88230469 451.04499023 39.17773438 451.39013672 C37.08030286 452.41328581 34.97796746 453.42578871 32.875 454.4375 C31.91835449 454.90422119 31.91835449 454.90422119 30.94238281 455.38037109 C7.16058309 466.97353324 -17.89525833 474.01393934 -44.125 477.4375 C-45.15383301 477.60878418 -46.18266602 477.78006836 -47.24267578 477.95654297 C-51.89400012 478.53276665 -56.45074339 478.61861824 -61.1328125 478.640625 C-62.09412079 478.64632507 -63.05542908 478.65202515 -64.04586792 478.65789795 C-66.08151157 478.66731756 -68.11717026 478.67386981 -70.15283203 478.67773438 C-73.19202361 478.6873172 -76.2305016 478.71831766 -79.26953125 478.75 C-96.75852523 478.84582913 -113.6400809 476.9421483 -130.625 472.6875 C-131.66342041 472.43145996 -132.70184082 472.17541992 -133.77172852 471.91162109 C-160.06723483 465.25701886 -183.88462657 454.49518983 -207.0625 440.5625 C-207.86300781 440.08578857 -208.66351563 439.60907715 -209.48828125 439.11791992 C-210.22304687 438.66908447 -210.9578125 438.22024902 -211.71484375 437.7578125 C-212.37347412 437.35836426 -213.03210449 436.95891602 -213.71069336 436.54736328 C-214.17741455 436.1811084 -214.64413574 435.81485352 -215.125 435.4375 C-215.125 434.7775 -215.125 434.1175 -215.125 433.4375 C-215.84042969 433.19515625 -216.55585938 432.9528125 -217.29296875 432.703125 C-220.51478776 431.26330519 -222.75246327 429.47230694 -225.4375 427.1875 C-229.43850596 423.82079986 -233.48547617 420.63684442 -237.76171875 417.62890625 C-238.21160156 417.23574219 -238.66148437 416.84257812 -239.125 416.4375 C-239.125 415.7775 -239.125 415.1175 -239.125 414.4375 C-239.785 414.4375 -240.445 414.4375 -241.125 414.4375 C-241.125 413.7775 -241.125 413.1175 -241.125 412.4375 C-241.785 412.4375 -242.445 412.4375 -243.125 412.4375 C-243.125 411.7775 -243.125 411.1175 -243.125 410.4375 C-243.785 410.4375 -244.445 410.4375 -245.125 410.4375 C-245.125 409.7775 -245.125 409.1175 -245.125 408.4375 C-245.764375 408.169375 -246.40375 407.90125 -247.0625 407.625 C-249.125 406.4375 -249.125 406.4375 -250.125 403.4375 C-250.785 403.4375 -251.445 403.4375 -252.125 403.4375 C-252.125 402.7775 -252.125 402.1175 -252.125 401.4375 C-252.785 401.4375 -253.445 401.4375 -254.125 401.4375 C-254.125 400.7775 -254.125 400.1175 -254.125 399.4375 C-254.785 399.4375 -255.445 399.4375 -256.125 399.4375 C-260.125 394.96691176 -260.125 394.96691176 -260.125 392.4375 C-260.785 392.4375 -261.445 392.4375 -262.125 392.4375 C-263.54962223 390.76590309 -264.88848248 389.02097098 -266.1875 387.25 C-266.58380615 386.71044678 -266.9801123 386.17089355 -267.38842773 385.61499023 C-281.76868454 365.92553694 -294.84179639 345.47279766 -303.125 322.4375 C-303.40053711 321.68049805 -303.67607422 320.92349609 -303.95996094 320.14355469 C-310.51462123 301.94103652 -316.12187579 282.74033327 -318.125 263.4375 C-318.23457031 262.41914063 -318.34414063 261.40078125 -318.45703125 260.3515625 C-321.1469031 229.0055892 -319.51020109 196.59837151 -310.125 166.4375 C-309.71507812 165.11347168 -309.71507812 165.11347168 -309.296875 163.76269531 C-303.61806648 145.6374304 -297.03106217 128.68540843 -287.125 112.4375 C-286.32561606 110.98338255 -285.53351063 109.52523146 -284.75 108.0625 C-282.45482113 103.90968471 -279.96934161 99.88634572 -277.4375 95.875 C-277.04449707 95.24223145 -276.65149414 94.60946289 -276.24658203 93.95751953 C-275.26078696 92.41448055 -274.19883608 90.92061742 -273.125 89.4375 C-272.465 89.4375 -271.805 89.4375 -271.125 89.4375 C-270.465 87.7875 -269.805 86.1375 -269.125 84.4375 C-268.465 84.4375 -267.805 84.4375 -267.125 84.4375 C-266.86074219 83.86515625 -266.59648437 83.2928125 -266.32421875 82.703125 C-262.65657054 75.77401763 -256.74843153 68.88288093 -251.125 63.4375 C-250.465 63.4375 -249.805 63.4375 -249.125 63.4375 C-249.125 62.7775 -249.125 62.1175 -249.125 61.4375 C-248.465 61.4375 -247.805 61.4375 -247.125 61.4375 C-247.125 60.7775 -247.125 60.1175 -247.125 59.4375 C-246.465 59.4375 -245.805 59.4375 -245.125 59.4375 C-245.125 58.7775 -245.125 58.1175 -245.125 57.4375 C-243.69140625 55.9921875 -243.69140625 55.9921875 -241.6875 54.3125 C-237.75819833 50.99039059 -233.9677382 47.54638199 -230.203125 44.0390625 C-228.10852472 42.42480289 -226.7090195 41.84489046 -224.125 41.4375 C-224.125 40.7775 -224.125 40.1175 -224.125 39.4375 C-222.475 38.7775 -220.825 38.1175 -219.125 37.4375 C-219.125 36.7775 -219.125 36.1175 -219.125 35.4375 C-216.88671875 33.73828125 -216.88671875 33.73828125 -213.8125 31.75 C-212.70777344 31.03457031 -211.60304688 30.31914063 -210.46484375 29.58203125 C-209.36269531 28.87433594 -208.26054687 28.16664062 -207.125 27.4375 C-205.79662109 26.54611328 -205.79662109 26.54611328 -204.44140625 25.63671875 C-144.20413025 -14.24640919 -68.00532197 -19.43545054 0 0 Z " fill="#FE831A" transform="translate(323.125,16.5625)"/>
<path d="M0 0 C0.94061279 0.2683667 1.88122559 0.5367334 2.8503418 0.81323242 C9.47839378 2.80087462 15.62711683 5.48271372 21.875 8.4375 C23.35191682 9.08846191 24.83070113 9.73522908 26.3125 10.375 C35.53239593 14.49073562 44.35926387 19.18792245 53.125 24.1875 C54.41349854 24.9136853 54.41349854 24.9136853 55.72802734 25.65454102 C56.52418457 26.11401123 57.3203418 26.57348145 58.140625 27.046875 C58.86024414 27.45905273 59.57986328 27.87123047 60.32128906 28.29589844 C60.83401367 28.67262695 61.34673828 29.04935547 61.875 29.4375 C61.875 30.0975 61.875 30.7575 61.875 31.4375 C62.98294922 31.83582031 62.98294922 31.83582031 64.11328125 32.2421875 C66.84250819 33.42343707 68.75745498 34.7028952 71.0625 36.5625 C72.22072266 37.490625 72.22072266 37.490625 73.40234375 38.4375 C74.21832031 39.0975 75.03429687 39.7575 75.875 40.4375 C77.17630859 41.4584375 77.17630859 41.4584375 78.50390625 42.5 C82.89033493 45.95161601 86.97371684 49.43868476 90.875 53.4375 C92.53684511 54.92208163 94.20407054 56.40065047 95.875 57.875 C99.60105777 61.20361161 102.77240338 64.53709283 105.875 68.4375 C107.03128906 69.58412109 107.03128906 69.58412109 108.2109375 70.75390625 C110.87197012 73.43444791 113.28854306 76.20885499 115.6875 79.125 C116.47769531 80.07761719 117.26789063 81.03023438 118.08203125 82.01171875 C119.875 84.4375 119.875 84.4375 119.875 86.4375 C120.535 86.4375 121.195 86.4375 121.875 86.4375 C123.3828125 88.3359375 123.3828125 88.3359375 125 90.8125 C125.80824219 92.03066406 125.80824219 92.03066406 126.6328125 93.2734375 C127.875 95.4375 127.875 95.4375 127.875 97.4375 C128.535 97.4375 129.195 97.4375 129.875 97.4375 C131.74574227 100.68778406 133.60892437 103.94214498 135.4609375 107.203125 C137.07127908 110.03806595 138.70442608 112.85817843 140.3515625 115.671875 C157.59875772 145.46004884 167.30357872 180.17623357 169.875 214.4375 C169.97554688 215.63681152 169.97554688 215.63681152 170.078125 216.86035156 C172.78192184 250.43682862 167.64994701 283.6150776 156.875 315.4375 C156.51148438 316.52675781 156.14796875 317.61601562 155.7734375 318.73828125 C149.92435648 334.96001314 141.79509108 350.69907679 132.875 365.4375 C132.3696875 366.30246094 131.864375 367.16742188 131.34375 368.05859375 C130.25123579 369.89109578 129.07466586 371.6732855 127.875 373.4375 C127.215 373.4375 126.555 373.4375 125.875 373.4375 C125.62878906 374.15550781 125.38257813 374.87351562 125.12890625 375.61328125 C123.73383684 378.75544692 122.01028193 380.98845942 119.8125 383.625 C117.06579836 386.85032987 117.06579836 386.85032987 114.875 390.4375 C114.215 390.4375 113.555 390.4375 112.875 390.4375 C112.58625 391.035625 112.2975 391.63375 112 392.25 C110.875 394.4375 110.875 394.4375 108.875 397.4375 C108.215 397.4375 107.555 397.4375 106.875 397.4375 C106.875 398.0975 106.875 398.7575 106.875 399.4375 C106.215 399.4375 105.555 399.4375 104.875 399.4375 C104.6171875 400.02015625 104.359375 400.6028125 104.09375 401.203125 C102.77665983 403.6177903 101.32411616 405.25490177 99.375 407.1875 C98.7665625 407.80109375 98.158125 408.4146875 97.53125 409.046875 C95.875 410.4375 95.875 410.4375 93.875 410.4375 C93.875 411.0975 93.875 411.7575 93.875 412.4375 C93.215 412.4375 92.555 412.4375 91.875 412.4375 C91.875 413.0975 91.875 413.7575 91.875 414.4375 C91.215 414.4375 90.555 414.4375 89.875 414.4375 C89.6378125 415.02015625 89.400625 415.6028125 89.15625 416.203125 C87.6023194 418.91302837 85.85570569 420.30280802 83.375 422.1875 C82.5809375 422.80109375 81.786875 423.4146875 80.96875 424.046875 C78.875 425.4375 78.875 425.4375 76.875 425.4375 C76.875 426.0975 76.875 426.7575 76.875 427.4375 C75.27368164 428.76269531 75.27368164 428.76269531 73.03515625 430.265625 C72.21853516 430.81863281 71.40191406 431.37164062 70.56054688 431.94140625 C69.69494141 432.51761719 68.82933594 433.09382813 67.9375 433.6875 C67.10669922 434.24824219 66.27589844 434.80898438 65.41992188 435.38671875 C63.73931168 436.51933231 62.05568006 437.64747477 60.36914062 438.77124023 C58.74208134 439.85822923 57.12066839 440.95373209 55.50585938 442.05883789 C50.89522806 445.19783378 46.27140249 447.95038728 41.25 450.375 C40.56615234 450.70999512 39.88230469 451.04499023 39.17773438 451.39013672 C37.08030286 452.41328581 34.97796746 453.42578871 32.875 454.4375 C31.91835449 454.90422119 31.91835449 454.90422119 30.94238281 455.38037109 C7.16058309 466.97353324 -17.89525833 474.01393934 -44.125 477.4375 C-45.15383301 477.60878418 -46.18266602 477.78006836 -47.24267578 477.95654297 C-51.89400012 478.53276665 -56.45074339 478.61861824 -61.1328125 478.640625 C-62.09412079 478.64632507 -63.05542908 478.65202515 -64.04586792 478.65789795 C-66.08151157 478.66731756 -68.11717026 478.67386981 -70.15283203 478.67773438 C-73.19202361 478.6873172 -76.2305016 478.71831766 -79.26953125 478.75 C-96.75852523 478.84582913 -113.6400809 476.9421483 -130.625 472.6875 C-131.66342041 472.43145996 -132.70184082 472.17541992 -133.77172852 471.91162109 C-160.06723483 465.25701886 -183.88462657 454.49518983 -207.0625 440.5625 C-207.86300781 440.08578857 -208.66351563 439.60907715 -209.48828125 439.11791992 C-210.22304687 438.66908447 -210.9578125 438.22024902 -211.71484375 437.7578125 C-212.37347412 437.35836426 -213.03210449 436.95891602 -213.71069336 436.54736328 C-214.17741455 436.1811084 -214.64413574 435.81485352 -215.125 435.4375 C-215.125 434.7775 -215.125 434.1175 -215.125 433.4375 C-215.84042969 433.19515625 -216.55585938 432.9528125 -217.29296875 432.703125 C-220.51478776 431.26330519 -222.75246327 429.47230694 -225.4375 427.1875 C-229.43850596 423.82079986 -233.48547617 420.63684442 -237.76171875 417.62890625 C-238.21160156 417.23574219 -238.66148437 416.84257812 -239.125 416.4375 C-239.125 415.7775 -239.125 415.1175 -239.125 414.4375 C-239.785 414.4375 -240.445 414.4375 -241.125 414.4375 C-241.125 413.7775 -241.125 413.1175 -241.125 412.4375 C-241.785 412.4375 -242.445 412.4375 -243.125 412.4375 C-243.125 411.7775 -243.125 411.1175 -243.125 410.4375 C-243.785 410.4375 -244.445 410.4375 -245.125 410.4375 C-245.125 409.7775 -245.125 409.1175 -245.125 408.4375 C-245.764375 408.169375 -246.40375 407.90125 -247.0625 407.625 C-249.125 406.4375 -249.125 406.4375 -250.125 403.4375 C-250.785 403.4375 -251.445 403.4375 -252.125 403.4375 C-252.125 402.7775 -252.125 402.1175 -252.125 401.4375 C-252.785 401.4375 -253.445 401.4375 -254.125 401.4375 C-254.125 400.7775 -254.125 400.1175 -254.125 399.4375 C-254.785 399.4375 -255.445 399.4375 -256.125 399.4375 C-260.125 394.96691176 -260.125 394.96691176 -260.125 392.4375 C-260.785 392.4375 -261.445 392.4375 -262.125 392.4375 C-263.54962223 390.76590309 -264.88848248 389.02097098 -266.1875 387.25 C-266.58380615 386.71044678 -266.9801123 386.17089355 -267.38842773 385.61499023 C-281.76868454 365.92553694 -294.84179639 345.47279766 -303.125 322.4375 C-303.40053711 321.68049805 -303.67607422 320.92349609 -303.95996094 320.14355469 C-310.51462123 301.94103652 -316.12187579 282.74033327 -318.125 263.4375 C-318.23457031 262.41914063 -318.34414063 261.40078125 -318.45703125 260.3515625 C-321.1469031 229.0055892 -319.51020109 196.59837151 -310.125 166.4375 C-309.71507812 165.11347168 -309.71507812 165.11347168 -309.296875 163.76269531 C-303.61806648 145.6374304 -297.03106217 128.68540843 -287.125 112.4375 C-286.32561606 110.98338255 -285.53351063 109.52523146 -284.75 108.0625 C-282.45482113 103.90968471 -279.96934161 99.88634572 -277.4375 95.875 C-277.04449707 95.24223145 -276.65149414 94.60946289 -276.24658203 93.95751953 C-275.26078696 92.41448055 -274.19883608 90.92061742 -273.125 89.4375 C-272.465 89.4375 -271.805 89.4375 -271.125 89.4375 C-270.465 87.7875 -269.805 86.1375 -269.125 84.4375 C-268.465 84.4375 -267.805 84.4375 -267.125 84.4375 C-266.86074219 83.86515625 -266.59648437 83.2928125 -266.32421875 82.703125 C-262.65657054 75.77401763 -256.74843153 68.88288093 -251.125 63.4375 C-250.465 63.4375 -249.805 63.4375 -249.125 63.4375 C-249.125 62.7775 -249.125 62.1175 -249.125 61.4375 C-248.465 61.4375 -247.805 61.4375 -247.125 61.4375 C-247.125 60.7775 -247.125 60.1175 -247.125 59.4375 C-246.465 59.4375 -245.805 59.4375 -245.125 59.4375 C-245.125 58.7775 -245.125 58.1175 -245.125 57.4375 C-243.69140625 55.9921875 -243.69140625 55.9921875 -241.6875 54.3125 C-237.75819833 50.99039059 -233.9677382 47.54638199 -230.203125 44.0390625 C-228.10852472 42.42480289 -226.7090195 41.84489046 -224.125 41.4375 C-224.125 40.7775 -224.125 40.1175 -224.125 39.4375 C-222.475 38.7775 -220.825 38.1175 -219.125 37.4375 C-219.125 36.7775 -219.125 36.1175 -219.125 35.4375 C-216.88671875 33.73828125 -216.88671875 33.73828125 -213.8125 31.75 C-212.70777344 31.03457031 -211.60304688 30.31914063 -210.46484375 29.58203125 C-209.36269531 28.87433594 -208.26054687 28.16664062 -207.125 27.4375 C-205.79662109 26.54611328 -205.79662109 26.54611328 -204.44140625 25.63671875 C-144.20413025 -14.24640919 -68.00532197 -19.43545054 0 0 Z M-162.125 32.4375 C-163.03934814 32.86168213 -163.03934814 32.86168213 -163.97216797 33.29443359 C-180.15861929 40.88196061 -195.80445299 49.54861445 -209.51171875 61.08447266 C-211.09661259 62.41369204 -212.70122124 63.71467893 -214.3125 65.01171875 C-226.36139507 74.81990325 -238.08491471 85.76035714 -247.125 98.4375 C-247.92679688 99.47261719 -248.72859375 100.50773437 -249.5546875 101.57421875 C-271.76498172 130.44920429 -284.82540081 163.75549218 -291.125 199.4375 C-291.25632324 200.12585938 -291.38764648 200.81421875 -291.52294922 201.5234375 C-301.53767203 254.78546959 -285.1344516 312.90125046 -256.125 357.4375 C-252.70902238 362.31652443 -248.95061733 366.87755365 -245.125 371.4375 C-244.09246094 372.77167969 -244.09246094 372.77167969 -243.0390625 374.1328125 C-231.90663937 388.42155483 -218.59199559 400.58954081 -203.92285156 411.14355469 C-202.40249725 412.23778036 -200.89852826 413.35471812 -199.3984375 414.4765625 C-164.20776812 440.25166817 -119.8524939 452.9250567 -76.625 452.75 C-75.69402496 452.74817719 -74.76304993 452.74635437 -73.80386353 452.74447632 C-60.04486591 452.6990827 -46.63420179 452.26744724 -33.125 449.4375 C-32.26825684 449.26589355 -31.41151367 449.09428711 -30.52880859 448.91748047 C1.09859376 442.45335933 34.78756826 429.16920456 59.29296875 407.66796875 C61.48073096 405.77808642 63.70227752 404.05833981 66.01171875 402.32421875 C71.60470469 397.99876831 76.52834241 393.07714022 81.5 388.0625 C82.40234375 387.16789062 83.3046875 386.27328125 84.234375 385.3515625 C89.56830534 380.00208134 94.40778029 374.52730946 98.875 368.4375 C99.53314697 367.56037354 99.53314697 367.56037354 100.20458984 366.66552734 C110.1305074 353.36107906 118.11922741 339.53098494 124.95117188 324.41845703 C125.89442236 322.3958528 126.90291572 320.41696676 127.92578125 318.43359375 C133.24978198 307.8538322 136.14602881 295.96928505 139.125 284.5625 C139.3710498 283.65628906 139.61709961 282.75007813 139.87060547 281.81640625 C143.99956605 265.42594298 144.32006242 248.25462441 144.3125 231.4375 C144.31290283 230.50584015 144.31330566 229.5741803 144.3137207 228.61428833 C144.27367525 212.4260845 142.93810085 197.17537281 138.875 181.4375 C138.59624023 180.34775879 138.31748047 179.25801758 138.03027344 178.13525391 C128.76282041 143.09237642 111.09298777 110.57451065 85.875 84.4375 C85.2552832 83.78668457 84.63556641 83.13586914 83.99707031 82.46533203 C73.99613818 72.00477277 63.82238377 62.61669223 51.875 54.4375 C51.04234619 53.85379639 51.04234619 53.85379639 50.19287109 53.25830078 C34.76479752 42.49355442 17.52418012 33.87706572 -0.125 27.4375 C-0.98867188 27.08558594 -1.85234375 26.73367187 -2.7421875 26.37109375 C-50.93366917 7.22961738 -115.60275127 10.74176417 -162.125 32.4375 Z " fill="#090706" transform="translate(323.125,16.5625)"/>
<path d="M0 0 C1.42063248 -0.00810448 1.42063248 -0.00810448 2.8699646 -0.01637268 C5.99045372 -0.02884668 9.11001784 -0.01237736 12.23046875 0.00561523 C14.40470427 0.00546022 16.57894006 0.00397077 18.75317383 0.00120544 C23.30595136 -0.00017796 27.85841364 0.01237004 32.41113281 0.03515625 C38.24198803 0.06354039 44.07231953 0.06080262 49.9032135 0.04806614 C54.39168762 0.04110556 58.88004105 0.04890265 63.36849976 0.06132317 C65.51825497 0.06583396 67.66802316 0.06617773 69.81777954 0.06225777 C72.82410158 0.0593419 75.8297062 0.07587104 78.8359375 0.09765625 C79.72131195 0.0931546 80.6066864 0.08865295 81.51889038 0.08401489 C86.56582634 0.14466792 90.04349836 0.70998904 94.41796875 3.50170898 C98.26751288 7.4525569 98.65543634 10.5567021 98.66796875 15.87670898 C98.60407415 17.75247201 98.52711484 19.62803437 98.41796875 21.50170898 C99.28808594 21.44950195 99.28808594 21.44950195 100.17578125 21.39624023 C105.39140742 21.21550071 108.95314319 21.49054756 113.41796875 24.50170898 C117.41796875 29.50170898 117.41796875 29.50170898 117.41796875 46.50170898 C66.26796875 46.50170898 15.11796875 46.50170898 -37.58203125 46.50170898 C-37.58203125 29.50170898 -37.58203125 29.50170898 -32.58203125 23.50170898 C-29.49192201 21.37269671 -27.0395644 21.27914232 -23.33203125 21.37670898 C-22.44 21.39475586 -21.54796875 21.41280273 -20.62890625 21.43139648 C-19.9534375 21.45459961 -19.27796875 21.47780273 -18.58203125 21.50170898 C-18.63423828 20.4150293 -18.63423828 20.4150293 -18.6875 19.30639648 C-18.97229708 9.13507228 -18.97229708 9.13507228 -15.58203125 4.50170898 C-10.42694091 0.14396468 -6.44255064 -0.07035032 0 0 Z " fill="#13110F" transform="translate(264.58203125,315.498291015625)"/>
<path d="M0 0 C4.09103967 1.57126582 6.507099 4.53127935 9.3125 7.75 C13.29261703 12.21520422 17.31690674 16.25352539 22 20 C21.59527243 24.47330476 18.45113205 26.83975821 15.375 29.75 C14.27551022 30.8184289 13.17784763 31.88874136 12.08203125 32.9609375 C11.5504541 33.48010742 11.01887695 33.99927734 10.47119141 34.53417969 C6.48963622 38.50119883 2.94228936 42.8518714 -0.625 47.1875 C-3.75044815 50.8886886 -7.20185408 54.21244894 -10.6484375 57.61328125 C-15.32144269 62.23942249 -19.85711208 66.89968917 -24.125 71.90625 C-26.93393243 75.04289122 -29.94820294 77.96918735 -32.94433594 80.92480469 C-36.26065387 84.21365829 -39.35998987 87.62170242 -42.390625 91.171875 C-44.56128944 93.6375812 -46.89944022 95.91021259 -49.2421875 98.2109375 C-51.69365165 100.70598323 -53.96092049 103.34430165 -56.2265625 106.0078125 C-58.39038293 108.43853589 -60.6986369 110.6986369 -63 113 C-65.51693256 115.650865 -68.00814444 118.32557284 -70.5 121 C-84.37895528 135.89582923 -84.37895528 135.89582923 -93.375 136.375 C-99.49456237 136.220205 -104.07009994 133.98205952 -108.3125 129.625 C-108.869375 128.75875 -109.42625 127.8925 -110 127 C-110.86625 125.6696875 -110.86625 125.6696875 -111.75 124.3125 C-113.67667468 119.20681209 -114.13493602 114.22826247 -112.296875 109 C-107.24418232 99.95040117 -97.89234678 92.49725499 -90.06640625 85.84765625 C-86.88958106 83.00713014 -83.93034265 79.95149299 -80.9387207 76.91918945 C-77.76517666 73.71892552 -74.49835829 70.83200433 -71 68 C-68.76803868 65.82526846 -66.59044406 63.60498702 -64.4140625 61.375 C-61.45275936 58.37349817 -58.45575248 55.49029557 -55.25 52.75 C-51.84161607 49.81720452 -48.65599435 46.69928646 -45.5 43.5 C-41.75399835 39.70261287 -37.91668883 36.09123968 -33.8515625 32.63671875 C-31.23694911 30.32548877 -28.8411827 27.82032123 -26.4453125 25.28515625 C-25 24 -25 24 -23 24 C-22.505 22.515 -22.505 22.515 -22 21 C-20.46875 19.4921875 -20.46875 19.4921875 -18.5 17.875 C-13.73336689 13.83577051 -9.37759799 9.45249986 -5 5 C-3.98035299 3.97798172 -2.95977621 2.95688842 -1.9375 1.9375 C-0.9784375 0.9784375 -0.9784375 0.9784375 0 0 Z " fill="#131110" transform="translate(214,223)"/>
<path d="M0 0 C3.19910443 1.414563 5.37866392 3.11290021 7.86645508 5.56005859 C8.61014847 6.28776459 9.35384186 7.01547058 10.12007141 7.76522827 C10.91189316 8.55168732 11.7037149 9.33814636 12.51953125 10.1484375 C13.3374968 10.95737457 14.15546234 11.76631165 14.99821472 12.59976196 C16.72313312 14.31018352 18.44526237 16.0234218 20.16479492 17.73925781 C22.80775807 20.3702795 25.46879226 22.98207755 28.13085938 25.59375 C29.8032291 27.25666101 31.4744919 28.92068614 33.14453125 30.5859375 C34.3474456 31.75955338 34.3474456 31.75955338 35.57466125 32.95687866 C36.66656013 34.05789413 36.66656013 34.05789413 37.78051758 35.18115234 C38.4279744 35.82353851 39.07543121 36.46592468 39.74250793 37.1277771 C41 39 41 39 40.92626953 41.03277588 C39.78234815 43.46225203 38.48419248 44.60722731 36.39916992 46.29443359 C32.24909069 49.76601743 28.42146888 53.44922976 24.61328125 57.2890625 C23.94838181 57.95537689 23.28348236 58.62169128 22.59843445 59.30819702 C20.50073241 61.4114317 18.40655144 63.5181313 16.3125 65.625 C14.89802104 67.04450462 13.48330932 68.46377735 12.06835938 69.8828125 C8.90437061 73.05669476 5.7428406 76.23300593 2.582901 79.41091919 C1.14607474 80.85335497 -0.29535786 82.29119867 -1.73730469 83.72851562 C-3.58522374 85.58361261 -5.39892532 87.45899649 -7.19140625 89.3671875 C-8.31494477 90.53661149 -9.43864487 91.70588028 -10.5625 92.875 C-11.12646484 93.48085937 -11.69042969 94.08671875 -12.27148438 94.7109375 C-13.94140625 96.4296875 -13.94140625 96.4296875 -17 99 C-20.76799461 98.80855235 -22.6045549 96.74548666 -25.15234375 94.140625 C-25.92900391 93.35429687 -26.70566406 92.56796875 -27.50585938 91.7578125 C-28.70952148 90.51644531 -28.70952148 90.51644531 -29.9375 89.25 C-30.73607422 88.43789062 -31.53464844 87.62578125 -32.35742188 86.7890625 C-33.90615111 85.21338769 -35.45206102 83.63493586 -36.99487305 82.0534668 C-39.31028088 79.68223884 -41.65084879 77.33778435 -44 75 C-45.25676845 73.74374767 -46.5132525 72.48721079 -47.76953125 71.23046875 C-48.43017578 70.56982422 -49.09082031 69.90917969 -49.77148438 69.22851562 C-52.84765625 66.15234375 -55.92382812 63.07617188 -59 60 C-58.67 59.34 -58.34 58.68 -58 58 C-57.34 58 -56.68 58 -56 58 C-56 57.34 -56 56.68 -56 56 C-55.34 56 -54.68 56 -54 56 C-54 55.34 -54 54.68 -54 54 C-51.76064071 51.51182301 -49.84512945 49.41049145 -46.8125 47.9375 C-44.43226756 46.70634529 -44.12581203 45.39235057 -43 43 C-41 40.75 -41 40.75 -39 39 C-38.34 39 -37.68 39 -37 39 C-36.731875 38.360625 -36.46375 37.72125 -36.1875 37.0625 C-35 35 -35 35 -32 34 C-31.31513275 32.67592331 -30.65129797 31.34090759 -30 30 C-28 27.75 -28 27.75 -26 26 C-25.34 26 -24.68 26 -24 26 C-24 25.34 -24 24.68 -24 24 C-21.625 21.375 -21.625 21.375 -19 19 C-18.34 19 -17.68 19 -17 19 C-16.7525 18.4225 -16.505 17.845 -16.25 17.25 C-14.81700012 14.67060021 -13.21575324 12.93878408 -11 11 C-10.34 11 -9.68 11 -9 11 C-8.74476563 10.41734375 -8.48953125 9.8346875 -8.2265625 9.234375 C-6.88258913 6.78611777 -5.38189704 5.18256752 -3.375 3.25 C-2.74335938 2.63640625 -2.11171875 2.0228125 -1.4609375 1.390625 C-0.73777344 0.70226562 -0.73777344 0.70226562 0 0 Z " fill="#131110" transform="translate(271,148)"/>
<path d="M0 0 C3.69060151 2.13595252 6.19163086 4.75376424 8.5 8.3125 C9.47074512 13.53025503 8.89528511 18.17050433 6.5625 22.9375 C2.66896182 27.59075294 -1.65321384 31.77377185 -6 36 C-7.66944213 37.66388658 -9.33578611 39.33088416 -11 41 C-12.1977465 42.19808681 -13.39567736 43.39598932 -14.59375 44.59375 C-15.23183594 45.23183594 -15.86992187 45.86992187 -16.52734375 46.52734375 C-42.40625 72.40625 -42.40625 72.40625 -44.27783203 74.27636719 C-45.75905997 75.75885503 -47.2354713 77.2461526 -48.7109375 78.734375 C-50.80133796 80.80337204 -52.92417667 82.79946638 -55.125 84.75 C-56.11886719 85.63945312 -56.11886719 85.63945312 -57.1328125 86.546875 C-60.46194575 89.13774858 -63.80574147 89.34195701 -67.94140625 89.28125 C-72.52550615 88.65495931 -75.33331056 85.73876397 -78.3125 82.4375 C-81.22694736 78.22774271 -81.68485382 74.00323766 -81 69 C-78.66959473 64.59812338 -75.58961185 61.41450883 -72 58 C-71.113125 57.071875 -70.22625 56.14375 -69.3125 55.1875 C-67 53 -67 53 -65 53 C-64.76392532 52.43959015 -64.52785065 51.8791803 -64.28462219 51.30178833 C-62.69440337 48.45243142 -60.74831159 46.48638447 -58.44604492 44.17138672 C-57.98561295 43.70584381 -57.52518097 43.2403009 -57.05079651 42.76065063 C-55.53247875 41.22847172 -54.00688419 39.70379641 -52.48046875 38.1796875 C-51.41891321 37.11424329 -50.35758123 36.04857629 -49.29646301 34.98269653 C-47.07302754 32.75180645 -44.84576524 30.52482247 -42.6159668 28.30029297 C-39.76272671 25.45284822 -36.92101527 22.59419965 -34.08230114 19.73228264 C-31.89389944 17.52913127 -29.69859077 15.3329649 -27.5012455 13.13873672 C-26.45075602 12.08773472 -25.40262052 11.03437429 -24.35692406 9.97860336 C-22.89240913 8.50171684 -21.41862185 7.03473283 -19.94213867 5.56982422 C-19.1065593 4.73361542 -18.27097992 3.89740662 -17.41007996 3.03585815 C-11.99912502 -1.53491831 -6.66120749 -1.78462257 0 0 Z " fill="#131110" transform="translate(336,191)"/>
<path d="M0 0 C4.65009821 2.31004879 7.22981029 5.56751149 8.94140625 10.33984375 C9.82644736 15.74842831 8.54756212 18.92286526 5.56640625 23.29296875 C2.65985526 26.95410509 -0.67370429 30.12804523 -4.05859375 33.33984375 C-5.72966762 35.00209153 -7.39543461 36.66967692 -9.05859375 38.33984375 C-10.40208615 39.6838513 -11.74586173 41.02757581 -13.08984375 42.37109375 C-13.81816406 43.09941406 -14.54648438 43.82773438 -15.296875 44.578125 C-23.83203125 53.11328125 -32.3671875 61.6484375 -40.90234375 70.18359375 C-41.43738525 70.71879639 -41.97242676 71.25399902 -42.52368164 71.80541992 C-43.91827262 73.19956726 -45.31451325 74.59206393 -46.7109375 75.984375 C-48.20330068 77.48170445 -49.68624167 78.98853015 -51.15625 80.5078125 C-51.80464844 81.17425781 -52.45304687 81.84070313 -53.12109375 82.52734375 C-53.77207031 83.20152344 -54.42304688 83.87570313 -55.09375 84.5703125 C-59.15825666 88.23079265 -62.48393886 88.73952567 -67.8125 88.58203125 C-71.20472316 88.2162611 -73.29005291 87.33576854 -76.05859375 85.33984375 C-79.77785149 80.54395877 -80.51201731 76.86955188 -80.58984375 70.8671875 C-79.06472466 63.61165771 -72.35965314 58.38180149 -67.3125 53.3984375 C-66.46437241 52.5531398 -65.61624481 51.7078421 -64.74241638 50.83692932 C-62.03998501 48.14565147 -59.3306825 45.46141349 -56.62109375 42.77734375 C-54.80227344 40.96856233 -52.98390912 39.15932227 -51.16601562 37.34960938 C-47.82776797 34.02766616 -44.48696117 30.70834636 -41.14282227 27.39233398 C-40.42981964 26.6846286 -39.71681702 25.97692322 -38.98220825 25.24777222 C-37.81811219 24.09316873 -36.65282718 22.93975994 -35.48532104 21.78860474 C-33.38235696 19.70723633 -31.45772337 17.6187993 -29.55859375 15.33984375 C-27.18506031 12.49160363 -24.78855193 9.84845397 -22.05859375 7.33984375 C-21.39859375 7.33984375 -20.73859375 7.33984375 -20.05859375 7.33984375 C-19.85234375 6.76234375 -19.64609375 6.18484375 -19.43359375 5.58984375 C-15.1211422 -1.46689515 -7.3864503 -2.36870987 0 0 Z " fill="#13110F" transform="translate(261.05859375,116.66015625)"/>
<path d="M0 0 C0.69858517 -0.00311998 1.39717034 -0.00623996 2.11692476 -0.00945449 C4.46926978 -0.0174631 6.82135889 -0.01109985 9.17370605 -0.00482178 C10.85546521 -0.00753037 12.53722318 -0.01109056 14.21897888 -0.01544189 C18.79532449 -0.02458382 23.37158023 -0.02101424 27.94792747 -0.01468372 C32.72895939 -0.00963304 37.50998342 -0.01431257 42.29101562 -0.01745605 C50.32109972 -0.02109843 58.35114707 -0.01628951 66.38122559 -0.0067749 C75.67548266 0.00411017 84.96965201 0.00058478 94.26390696 -0.01042771 C102.23249772 -0.01949288 110.20106202 -0.02078965 118.16965628 -0.01555037 C122.933884 -0.01242643 127.69807043 -0.01203294 132.46229553 -0.01862335 C136.94052313 -0.02438502 141.41863721 -0.02042166 145.89685249 -0.00883484 C147.54404575 -0.00618191 149.1912485 -0.00696406 150.83843803 -0.01136017 C153.07984126 -0.01679228 155.32087635 -0.01001032 157.56225586 0 C159.44711323 0.00113108 159.44711323 0.00113108 161.37004852 0.002285 C164.28112793 0.25396729 164.28112793 0.25396729 166.28112793 2.25396729 C166.03112793 5.31646729 166.03112793 5.31646729 165.28112793 8.25396729 C162.37616463 9.70644893 159.84650365 9.38332504 156.60021973 9.38768005 C155.90571811 9.38994561 155.21121649 9.39221117 154.49566936 9.39454538 C152.15721179 9.4009001 149.81881196 9.40005508 147.48034668 9.39923096 C145.80844039 9.40222149 144.1365348 9.40562377 142.46463013 9.40940857 C137.91516891 9.41826255 133.36572648 9.42058724 128.81625748 9.42122436 C125.02373269 9.42217218 121.23121232 9.42584894 117.43868923 9.42939645 C108.49521602 9.43754598 99.55175287 9.43998019 90.60827637 9.43927002 C81.36855646 9.43866878 72.12889486 9.44922868 62.88918972 9.46501368 C54.96731255 9.47806732 47.04545448 9.48345485 39.12356663 9.48281461 C34.3872784 9.48255902 29.65104197 9.48544367 24.9147644 9.49599266 C20.46281083 9.50563736 16.01095898 9.50577794 11.55900192 9.49847603 C9.92148059 9.49742571 8.28395303 9.49981935 6.64644241 9.50583649 C4.41818536 9.51349657 2.19028491 9.50895189 -0.03796387 9.50120544 C-1.2871611 9.50175021 -2.53635834 9.50229498 -3.82341003 9.50285625 C-6.71887207 9.25396729 -6.71887207 9.25396729 -8.71887207 7.25396729 C-8.96887207 4.75396729 -8.96887207 4.75396729 -8.71887207 2.25396729 C-5.87390695 -0.59099784 -3.98751709 0.00239285 0 0 Z " fill="#15100D" transform="translate(225.7188720703125,371.74603271484375)"/>
<path d="M0 0 C0.495 1.485 0.495 1.485 1 3 C0.34 3.66 -0.32 4.32 -1 5 C-0.6814823 7.10820797 -0.6814823 7.10820797 0 9 C0.99 8.01 1.98 7.02 3 6 C3.495 6.99 3.495 6.99 4 8 C5.98 8 7.96 8 10 8 C10 9.65 10 11.3 10 13 C10.66 13 11.32 13 12 13 C12.99 14.485 12.99 14.485 14 16 C16.58380177 16.25030977 16.58380177 16.25030977 19 16 C18.67 17.98 18.34 19.96 18 22 C13.81576108 18.49102731 9.80411834 14.91939465 6 11 C2.71900591 12.40103451 0.92585065 13.99346316 -1.3125 16.75 C-4.08741911 20.04076945 -6.97272716 22.76275329 -10.296875 25.48046875 C-12.73077177 27.65199591 -14.71988574 30.12489647 -16.73828125 32.6796875 C-17.15464844 33.11539063 -17.57101563 33.55109375 -18 34 C-18.66 34 -19.32 34 -20 34 C-20 34.66 -20 35.32 -20 36 C-21.3203125 37.26171875 -21.3203125 37.26171875 -23.125 38.6875 C-25.68963902 40.80409968 -27.89128656 42.9296493 -30 45.5 C-32.48698162 48.51472308 -35.18503085 50.90997542 -38.19921875 53.3828125 C-40.89300521 55.80196129 -43.13757836 58.56128187 -45.421875 61.36328125 C-47 63 -47 63 -50 64 C-50 64.66 -50 65.32 -50 66 C-50.66 66 -51.32 66 -52 66 C-52 66.66 -52 67.32 -52 68 C-52.99 68.99 -52.99 68.99 -54 70 C-50.535 73.465 -50.535 73.465 -47 77 C-51 78 -51 78 -53 78 C-53 76.68 -53 75.36 -53 74 C-53.99 74 -54.98 74 -56 74 C-56 72.02 -56 70.04 -56 68 C-56.66 67.67 -57.32 67.34 -58 67 C-57.34 67 -56.68 67 -56 67 C-57.29467677 64.94009522 -57.29467677 64.94009522 -59 63 C-59.99 63 -60.98 63 -62 63 C-19.03125 20.03125 -19.03125 20.03125 -16.90722656 17.9074707 C-15.35943322 16.35947923 -13.81241216 14.81071561 -12.265625 13.26171875 C-10.70827984 11.70705866 -9.14546246 10.15786703 -7.578125 8.61328125 C-6.80984375 7.85402344 -6.0415625 7.09476563 -5.25 6.3125 C-4.47140625 5.54550781 -3.6928125 4.77851563 -2.890625 3.98828125 C-0.94769385 2.1389301 -0.94769385 2.1389301 0 0 Z " fill="#EF8223" transform="translate(267,138)"/>
<path d="M0 0 C2.475 0.495 2.475 0.495 5 1 C5 2.98 5 4.96 5 7 C5.99 6.67 6.98 6.34 8 6 C8 6.99 8 7.98 8 9 C8.99 9.33 9.98 9.66 11 10 C-5 26 -21 42 -37 58 C-37.8798909 58.8902034 -38.7597818 59.7804068 -39.66633606 60.69758606 C-41.68359038 62.6878274 -43.68743174 64.37263715 -46 66 C-46 64.35 -46 62.7 -46 61 C-44.68 61 -43.36 61 -42 61 C-42 60.34 -42 59.68 -42 59 C-41.34 59 -40.68 59 -40 59 C-40.20625 58.4225 -40.4125 57.845 -40.625 57.25 C-41.08661261 54.48032433 -40.42944945 53.35438733 -39 51 C-39.99 51 -40.98 51 -42 51 C-42.0825 51.78375 -42.165 52.5675 -42.25 53.375 C-43 56 -43 56 -44.875 57.375 C-47 58 -47 58 -50 57 C-41 48 -41 48 -38.86474609 45.86914062 C-35.8991199 42.90365096 -32.94822377 39.923618 -29.99604797 36.94474792 C-26.78488417 33.70691237 -23.56850041 30.47428405 -20.35180664 27.24194336 C-18.65178921 25.53179219 -16.95356009 23.81986154 -15.25708008 22.10620117 C-12.80754279 19.63253983 -10.35172199 17.16527469 -7.89453125 14.69921875 C-7.13308304 13.92744797 -6.37163483 13.15567719 -5.58711243 12.36051941 C-4.5304261 11.30360649 -4.5304261 11.30360649 -3.45239258 10.2253418 C-2.83237869 9.60088669 -2.21236481 8.97643158 -1.57356262 8.33305359 C0 7 0 7 2 7 C1.34414811 3.39007621 1.34414811 3.39007621 0 0 Z " fill="#F08121" transform="translate(309,184)"/>
<path d="M0 0 C1.25916922 0.00184359 2.51833843 0.00368717 3.81566429 0.00558662 C4.86565875 0.00302335 4.86565875 0.00302335 5.93686521 0.00040829 C8.29389614 -0.00289879 10.65064546 0.00813688 13.00765038 0.01904488 C14.69265295 0.01960873 16.37765602 0.01929294 18.06265831 0.01815987 C22.64714715 0.01758434 27.23153204 0.02937096 31.81599665 0.04330778 C36.6032951 0.05578185 41.39059575 0.05698301 46.17790794 0.0593586 C55.24789363 0.06558316 64.3178313 0.08200716 73.38779581 0.10205758 C83.71170191 0.12438624 94.03561027 0.13540236 104.3595345 0.14544845 C125.60082783 0.16637256 146.84207788 0.20156746 168.08333397 0.24609566 C168.08333397 0.57609566 168.08333397 0.90609566 168.08333397 1.24609566 C111.98333397 1.57609566 55.88333397 1.90609566 -1.91666603 2.24609566 C-1.91666603 3.56609566 -1.91666603 4.88609566 -1.91666603 6.24609566 C0.96166362 7.68526048 3.44588442 7.38742838 6.66380882 7.40431404 C7.34747092 7.40925202 8.03113301 7.41419 8.73551214 7.41927761 C11.03715986 7.43469344 13.33877961 7.44302423 15.64046288 7.45141792 C17.28605968 7.46099324 18.931654 7.47100312 20.57724571 7.4814167 C25.05424141 7.50850936 29.5312477 7.52949527 34.00828028 7.54941869 C38.68349492 7.57125139 43.35867677 7.59865334 48.03386497 7.62547493 C56.89131387 7.67543861 65.74878093 7.72036378 74.60626543 7.76349729 C84.68836652 7.8128383 94.77043472 7.86776804 104.85250401 7.92317688 C125.59608336 8.03705335 146.3396941 8.14388002 167.08333397 8.24609566 C167.08333397 8.57609566 167.08333397 8.90609566 167.08333397 9.24609566 C144.95263818 9.29276186 122.82195048 9.32805806 100.69121552 9.34972 C90.41614324 9.36004417 80.1411015 9.37412622 69.86604881 9.39697456 C60.91307012 9.41687361 51.96011353 9.42980379 43.00711334 9.43427265 C38.2640814 9.43688595 33.52111269 9.44305189 28.77810097 9.45755577 C24.31797522 9.47108469 19.85793904 9.47532786 15.39779472 9.47231102 C13.75704652 9.47286329 12.11629547 9.47686859 10.47556496 9.48450661 C8.24283176 9.49439465 6.01044083 9.4920873 3.77770042 9.48660469 C2.52590555 9.48844828 1.27411068 9.49029186 -0.01561737 9.49219131 C-2.91666603 9.24609566 -2.91666603 9.24609566 -4.91666603 7.24609566 C-5.16666603 4.74609566 -5.16666603 4.74609566 -4.91666603 2.24609566 C-2.91666603 0.24609566 -2.91666603 0.24609566 0 0 Z " fill="#491F00" transform="translate(221.9166660308838,371.75390434265137)"/>
<path d="M0 0 C0.66 0.33 1.32 0.66 2 1 C1.67 6.61 1.34 12.22 1 18 C52.15 18 103.3 18 156 18 C155.67 18.66 155.34 19.32 155 20 C104.51 20 54.02 20 2 20 C1.67 20.66 1.34 21.32 1 22 C-1.68967615 18.03458812 -1.26034079 13.90913709 -1.1875 9.3125 C-1.18685547 8.52810547 -1.18621094 7.74371094 -1.18554688 6.93554688 C-1.14046848 1.14046848 -1.14046848 1.14046848 0 0 Z " fill="#D77724" transform="translate(226,344)"/>
<path d="M0 0 C0.67095703 0.58007812 0.67095703 0.58007812 1.35546875 1.171875 C1.96003906 1.69265625 2.56460938 2.2134375 3.1875 2.75 C3.83074219 3.30429688 4.47398437 3.85859375 5.13671875 4.4296875 C6.55377264 5.62393417 8.017458 6.7630935 9.5 7.875 C11.61938684 9.67647881 13.26737434 11.39775645 15.0625 13.5 C18.33107763 17.29414188 21.71067375 20.95963682 25.1875 24.5625 C25.69869385 25.11164063 26.2098877 25.66078125 26.73657227 26.2265625 C28.36946949 27.95448058 28.36946949 27.95448058 31 30 C34.41282453 29.90403305 36.40808805 28.12907053 39 26 C38.505 28.475 38.505 28.475 38 31 C37.34 31 36.68 31 36 31 C36 31.66 36 32.32 36 33 C30.375 33.25 30.375 33.25 27 31 C26.67 30.01 26.34 29.02 26 28 C24.13803054 27.07606836 24.13803054 27.07606836 22 27 C21.01 27.66 20.02 28.32 19 29 C18.34 28.67 17.68 28.34 17 28 C16.67 29.32 16.34 30.64 16 32 C15.34 31.67 14.68 31.34 14 31 C14.33 29.68 14.66 28.36 15 27 C14.18015625 26.27554688 13.3603125 25.55109375 12.515625 24.8046875 C11.42677085 23.82847343 10.33824668 22.85189121 9.25 21.875 C8.71117187 21.400625 8.17234375 20.92625 7.6171875 20.4375 C4.07711474 17.24280019 1.4885227 14.07102985 -1 10 C-0.01 9.67 0.98 9.34 2 9 C2 8.01 2 7.02 2 6 C1.34 6 0.68 6 0 6 C0 4.02 0 2.04 0 0 Z " fill="#EA8023" transform="translate(220,216)"/>
<path d="M0 0 C0.77377515 2.6489091 1.01735423 3.91708535 0.4375 6.6875 C-0.036875 7.450625 -0.51125 8.21375 -1 9 C-3 9.33333333 -5 9.66666667 -7 10 C-8.41666667 12.33333333 -8.41666667 12.33333333 -9 15 C-9.33 15.99 -9.66 16.98 -10 18 C-8.68 17.67 -7.36 17.34 -6 17 C-6.85464778 22.7688725 -10.80977786 25.9725099 -15.25 29.3125 C-16.49539248 30.21472776 -17.74387028 31.11278216 -19 32 C-19 30.35 -19 28.7 -19 27 C-17.68 27 -16.36 27 -15 27 C-15 26.34 -15 25.68 -15 25 C-14.34 25 -13.68 25 -13 25 C-13.20625 24.4225 -13.4125 23.845 -13.625 23.25 C-14.08661261 20.48032433 -13.42944945 19.35438733 -12 17 C-12.99 17 -13.98 17 -15 17 C-15.0825 17.78375 -15.165 18.5675 -15.25 19.375 C-16 22 -16 22 -17.875 23.375 C-20 24 -20 24 -23 23 C-15.33333333 15.33333333 -7.66666667 7.66666667 0 0 Z " fill="#F08528" transform="translate(282,218)"/>
<path d="M0 0 C0.33 0 0.66 0 1 0 C0.86116581 3.43782031 0.71272946 6.87516029 0.5625 10.3125 C0.50352539 11.77719727 0.50352539 11.77719727 0.44335938 13.27148438 C0.40146484 14.20927734 0.35957031 15.14707031 0.31640625 16.11328125 C0.27974854 16.97735596 0.24309082 17.84143066 0.20532227 18.73168945 C0 21 0 21 -1 24 C-1.09474886 26.01779311 -1.13072216 28.0385784 -1.1328125 30.05859375 C-1.13410156 31.24904297 -1.13539062 32.43949219 -1.13671875 33.66601562 C-1.13285156 34.91060547 -1.12898438 36.15519531 -1.125 37.4375 C-1.12886719 38.67822266 -1.13273437 39.91894531 -1.13671875 41.19726562 C-1.13478516 42.98487305 -1.13478516 42.98487305 -1.1328125 44.80859375 C-1.13168457 45.89970459 -1.13055664 46.99081543 -1.12939453 48.11499023 C-1.0171975 50.61656061 -0.65083789 52.60565608 0 55 C0.11762858 56.34371209 0.19855637 57.69104957 0.24609375 59.0390625 C0.29540039 60.15667969 0.29540039 60.15667969 0.34570312 61.296875 C0.40720277 62.8566106 0.46445373 64.41651919 0.51757812 65.9765625 C0.54805111 70.45923497 0.54805111 70.45923497 3 74 C2.9765625 76.3828125 2.9765625 76.3828125 2.625 79.125 C2.51414062 80.03507812 2.40328125 80.94515625 2.2890625 81.8828125 C2.14597656 82.93082031 2.14597656 82.93082031 2 84 C0.12595486 80.7302225 -0.51585866 77.77874239 -1.0625 74.0625 C-1.21847656 73.04285156 -1.37445312 72.02320313 -1.53515625 70.97265625 C-2.79794854 60.18055744 -3.23304323 49.42396156 -3.25 38.5625 C-3.25233643 37.872771 -3.25467285 37.18304199 -3.25708008 36.47241211 C-3.27275238 24.12976035 -2.16332683 12.15583648 0 0 Z " fill="#D87C2D" transform="translate(33,210)"/>
<path d="M0 0 C0.33 0 0.66 0 1 0 C2.03933304 5.13705259 2.16111509 10.07339845 2.16796875 15.2890625 C2.17129715 16.18756927 2.17462555 17.08607605 2.17805481 18.0118103 C2.18310745 19.91639701 2.18546365 21.82099253 2.18530273 23.72558594 C2.18745621 26.56721747 2.20553683 29.40843878 2.22460938 32.25 C2.25406428 41.61421497 2.00345124 50.8851294 1.11328125 60.2109375 C1.03554977 61.05322906 0.9578183 61.89552063 0.87773132 62.76333618 C0.47566559 66.52855264 0.13320677 68.80018985 -2 72 C-2.02685938 69.85423363 -2.04633088 67.70837355 -2.0625 65.5625 C-2.07410156 64.36753906 -2.08570313 63.17257812 -2.09765625 61.94140625 C-2 59 -2 59 -1 58 C-0.87669912 56.1903226 -0.82209817 54.37592163 -0.79467773 52.56225586 C-0.77473251 51.40112778 -0.75478729 50.23999969 -0.73423767 49.04368591 C-0.71752518 47.780168 -0.70081268 46.51665009 -0.68359375 45.21484375 C-0.66281265 43.92888809 -0.64203156 42.64293243 -0.62062073 41.31800842 C-0.56533824 37.89364096 -0.51595639 34.4692125 -0.46777344 31.04473877 C-0.41760335 27.55255686 -0.3618939 24.0604639 -0.30664062 20.56835938 C-0.1989836 13.71231667 -0.09755551 6.85619367 0 0 Z " fill="#DF802C" transform="translate(465,220)"/>
<path d="M0 0 C0 0.33 0 0.66 0 1 C-5.20678379 2.59391341 -9.98951041 3.17441801 -15.4375 3.4375 C-20.56516926 3.72517436 -24.72559691 4.31720224 -29.48046875 6.171875 C-36.34187581 8.42709716 -43.80475355 9.33818305 -50.921875 10.4609375 C-51.95054687 10.72777344 -51.95054687 10.72777344 -53 11 C-53.33 11.66 -53.66 12.32 -54 13 C-56.64 13 -59.28 13 -62 13 C-58.13756273 9.13756273 -51.98963134 8.48701738 -46.8125 7.0625 C-46.16527985 6.88291748 -45.51805969 6.70333496 -44.85122681 6.51831055 C-30.16816048 2.48018965 -15.27632472 -0.2838806 0 0 Z " fill="#D3792A" transform="translate(236,32)"/>
<path d="M0 0 C-0.45375 0.433125 -0.9075 0.86625 -1.375 1.3125 C-3.20024334 3.10798342 -3.20024334 3.10798342 -5 6 C-5 5.01 -5 4.02 -5 3 C-7.03241727 3.63979849 -7.03241727 3.63979849 -9 5 C-9.81171228 7.55519921 -9.81171228 7.55519921 -10 10 C-9.34 10.33 -8.68 10.66 -8 11 C-8.66 11 -9.32 11 -10 11 C-10 11.66 -10 12.32 -10 13 C-11.98 13 -13.96 13 -16 13 C-16.354653 9.92634067 -16.48525378 7.06448309 -16 4 C-11.44001039 -0.91998879 -6.24796477 -0.44451923 0 0 Z " fill="#24160C" transform="translate(246,337)"/>
<path d="M0 0 C0.99 0 1.98 0 3 0 C3 0.66 3 1.32 3 2 C4.32 2.33 5.64 2.66 7 3 C6.37351563 3.60328125 5.74703125 4.2065625 5.1015625 4.828125 C4.28429687 5.62734375 3.46703125 6.4265625 2.625 7.25 C1.40683594 8.43335938 1.40683594 8.43335938 0.1640625 9.640625 C-3.28147615 13.39713285 -4.27274715 15.91617017 -4.1875 21 C-4.18105469 21.845625 -4.17460937 22.69125 -4.16796875 23.5625 C-4.01154076 25.83252477 -3.63089814 27.81961604 -3 30 C-3.66 30 -4.32 30 -5 30 C-7.27063762 25.31680991 -7.74319288 20.89019453 -6.4375 15.8125 C-5.82559793 13.94824543 -5.82559793 13.94824543 -6.625 11.9375 C-7 10 -7 10 -5.875 8.25 C-3.46145349 6.64096899 -1.84326464 6.76946503 1 7 C1 6.34 1 5.68 1 5 C0.01 4.67 -0.98 4.34 -2 4 C-1.34 3.67 -0.68 3.34 0 3 C0 2.01 0 1.02 0 0 Z " fill="#E17D26" transform="translate(186,169)"/>
<path d="M0 0 C0.99 0.66 1.98 1.32 3 2 C2.443125 1.95359375 1.88625 1.9071875 1.3125 1.859375 C-4.14016128 1.60147886 -7.64803392 2.37703792 -12.37109375 5.125 C-14 6 -14 6 -16 6 C-16.226875 6.556875 -16.45375 7.11375 -16.6875 7.6875 C-18.35302319 10.62199324 -20.62221176 12.62221176 -23 15 C-23.33 15.99 -23.66 16.98 -24 18 C-24.66 18 -25.32 18 -26 18 C-26.33 19.32 -26.66 20.64 -27 22 C-27.804375 22.12375 -28.60875 22.2475 -29.4375 22.375 C-30.283125 22.58125 -31.12875 22.7875 -32 23 C-32.33 23.66 -32.66 24.32 -33 25 C-33.66 24.67 -34.32 24.34 -35 24 C-34.278125 23.29875 -33.55625 22.5975 -32.8125 21.875 C-30.91104677 19.97890297 -29.22894511 18.07473413 -27.5 16 C-25.12646656 13.15175988 -22.72995818 10.50861022 -20 8 C-19.34 8 -18.68 8 -18 8 C-17.79375 7.4225 -17.5875 6.845 -17.375 6.25 C-13.36168294 -0.31724609 -7.06407763 -1.04562939 0 0 Z " fill="#311605" transform="translate(259,116)"/>
<path d="M0 0 C0 0.99 0 1.98 0 3 C0.020625 3.99 0.04125 4.98 0.0625 6 C0 9 0 9 -1 12 C-0.67 12.99 -0.34 13.98 0 15 C-0.99 15.33 -1.98 15.66 -3 16 C-3.33 16.66 -3.66 17.32 -4 18 C-4.98120464 14.94736336 -4.98120464 13.05263664 -4 10 C-4.99 10.66 -5.98 11.32 -7 12 C-7 12.99 -7 13.98 -7 15 C-8.65 14.67 -10.3 14.34 -12 14 C-12 14.99 -12 15.98 -12 17 C-13.32 16.67 -14.64 16.34 -16 16 C-10.72 10.72 -5.44 5.44 0 0 Z " fill="#E27C23" transform="translate(250,156)"/>
<path d="M0 0 C0 2.83967231 -0.40267181 5.23735711 -1 8 C-1.9075 8.20625 -2.815 8.4125 -3.75 8.625 C-7.76863578 10.32519206 -8.71980399 12.38313736 -11 16 C-11.99 16 -12.98 16 -14 16 C-14.33 17.32 -14.66 18.64 -15 20 C-15.66 20 -16.32 20 -17 20 C-17 20.66 -17 21.32 -17 22 C-17.66 22 -18.32 22 -19 22 C-19 22.66 -19 23.32 -19 24 C-20.32 23.67 -21.64 23.34 -23 23 C-15.41 15.41 -7.82 7.82 0 0 Z " fill="#321804" transform="translate(316,197)"/>
<path d="M0 0 C0 1.65 0 3.3 0 5 C-1.65 5.33 -3.3 5.66 -5 6 C-4.01 7.485 -4.01 7.485 -3 9 C-1.68 8.34 -0.36 7.68 1 7 C1.99 7.66 2.98 8.32 4 9 C1.69 10.98 -0.62 12.96 -3 15 C-3 14.34 -3 13.68 -3 13 C-3.99 12.67 -4.98 12.34 -6 12 C-6.33 11.67 -6.66 11.34 -7 11 C-8.98 11.66 -10.96 12.32 -13 13 C-2.15384615 0 -2.15384615 0 0 0 Z " fill="#E88228" transform="translate(296,205)"/>
<path d="M0 0 C0.33 1.32 0.66 2.64 1 4 C0.01 4.66 -0.98 5.32 -2 6 C-2.72965366 8.56282742 -2.72965366 8.56282742 -3 11 C-3.99 11 -4.98 11 -6 11 C-6.79953138 7.71303767 -7.09658936 6.28976808 -6 3 C-2.55555556 0 -2.55555556 0 0 0 Z M-7 11 C-5 13 -5 13 -5 16 C-5.66 16 -6.32 16 -7 16 C-7 16.66 -7 17.32 -7 18 C-7.66 18 -8.32 18 -9 18 C-9 18.66 -9 19.32 -9 20 C-9.99 20.33 -10.98 20.66 -12 21 C-12 19.68 -12 18.36 -12 17 C-11.01 17 -10.02 17 -9 17 C-9.33 15.68 -9.66 14.36 -10 13 C-9.01 12.34 -8.02 11.68 -7 11 Z " fill="#ED811F" transform="translate(224,186)"/>
<path d="M0 0 C0.66 1.32 1.32 2.64 2 4 C0.75312408 4.96239452 -0.49764969 5.91974009 -1.75 6.875 C-2.79414063 7.67550781 -2.79414063 7.67550781 -3.859375 8.4921875 C-6 10 -6 10 -8.1875 11.0625 C-10.52860931 12.27341861 -11.04071126 13.60177814 -12 16 C-12.66 16 -13.32 16 -14 16 C-14.33 16.99 -14.66 17.98 -15 19 C-15.99 18.67 -16.98 18.34 -18 18 C-18.33 18.99 -18.66 19.98 -19 21 C-19.66 20.67 -20.32 20.34 -21 20 C-19.84960919 18.84960919 -18.69888266 17.69955293 -17.546875 16.55078125 C-16.48959702 15.49083338 -15.43774005 14.42545767 -14.390625 13.35546875 C-10.60837236 9.51249187 -6.68778158 5.9010629 -2.6015625 2.3828125 C-1.71147181 1.61429517 -0.83152881 0.83152881 0 0 Z " fill="#211208" transform="translate(164,271)"/>
<path d="M0 0 C0 3.80672941 -0.75360239 4.91120329 -3 8 C-5.00265158 9.82245389 -7.05233919 11.55430702 -9.16015625 13.25390625 C-11.07967799 15.07561796 -11.87418662 16.63771637 -13 19 C-14.64295195 20.36244796 -16.30824337 21.69864875 -18 23 C-18.33 23.66 -18.66 24.32 -19 25 C-20.32 24.67 -21.64 24.34 -23 24 C-22.28714844 23.29875 -21.57429687 22.5975 -20.83984375 21.875 C-15.87715528 16.96785754 -11.03922211 12.03779987 -6.50390625 6.7265625 C-4.44501641 4.36285001 -2.24967462 2.18150266 0 0 Z " fill="#E58029" transform="translate(219,263)"/>
<path d="M0 0 C0 0.66 0 1.32 0 2 C-0.66 2 -1.32 2 -2 2 C-2.0825 2.5775 -2.165 3.155 -2.25 3.75 C-3.21797787 6.6539336 -4.68694284 8.03740604 -7 10 C-7.66 10 -8.32 10 -9 10 C-9.33 10.99 -9.66 11.98 -10 13 C-13.10462326 16.62206046 -15.16592748 18.58565093 -20 19 C-16.14324805 14.28619206 -12.0281064 9.89174933 -7.75 5.5625 C-7.21858398 5.01819336 -6.68716797 4.47388672 -6.13964844 3.91308594 C-2.2365258 0 -2.2365258 0 0 0 Z " fill="#E37D28" transform="translate(105,86)"/>
<path d="M0 0 C0.66 1.32 1.32 2.64 2 4 C0.7934375 4.8971875 0.7934375 4.8971875 -0.4375 5.8125 C-3.22327984 7.80947276 -3.22327984 7.80947276 -4 11 C-4.99 11 -5.98 11 -7 11 C-7.226875 11.886875 -7.45375 12.77375 -7.6875 13.6875 C-9.1898635 17.47917931 -11.07022058 19.21313665 -14 22 C-14.556875 22.928125 -15.11375 23.85625 -15.6875 24.8125 C-16.120625 25.534375 -16.55375 26.25625 -17 27 C-17.66 27 -18.32 27 -19 27 C-17.53341195 22.62454393 -15.15645138 19.31739411 -12.3125 15.75 C-11.86986816 15.18514893 -11.42723633 14.62029785 -10.97119141 14.03833008 C-10.07674984 12.89755316 -9.17996596 11.7586086 -8.28076172 10.62158203 C-6.46417263 8.32158494 -4.6702985 6.00413262 -2.875 3.6875 C-1.91703899 2.45804313 -0.95886875 1.22874903 0 0 Z " fill="#D27A2A" transform="translate(84,105)"/>
<path d="M0 0 C2.21590475 3.32385712 3.55218401 6.72134866 4.9375 10.4375 C5.20256348 11.14455078 5.46762695 11.85160156 5.74072266 12.58007812 C7.95464767 18.61632358 9.64267616 24.7134475 11 31 C10.34 30.67 9.68 30.34 9 30 C9 29.01 9 28.02 9 27 C8.34 27 7.68 27 7 27 C6.896875 25.948125 6.79375 24.89625 6.6875 23.8125 C6.01174757 20.06514563 5.03379011 18.13542642 3 15 C2.3125 12.6875 2.3125 12.6875 2 11 C1.01 11.495 1.01 11.495 0 12 C0 8.04 0 4.08 0 0 Z " fill="#D57928" transform="translate(450,165)"/>
<path d="M0 0 C0.33 0 0.66 0 1 0 C2.46346185 21.82126149 2.46346185 21.82126149 2 30 C1.67 30.33 1.34 30.66 1 31 C0.60333773 33.18019479 0.25684763 35.3696463 -0.0625 37.5625 C-0.23910156 38.76003906 -0.41570312 39.95757812 -0.59765625 41.19140625 C-0.73042969 42.11824219 -0.86320312 43.04507813 -1 44 C-1.97015311 40.85951831 -1.98337598 38.45108945 -1.59765625 35.19921875 C-0.86005161 28.08009079 -0.65528116 20.9635764 -0.4375 13.8125 C-0.39417354 12.46548532 -0.35055552 11.11847999 -0.30664062 9.77148438 C-0.20157348 6.51440273 -0.09942166 3.25725803 0 0 Z " fill="#4A1E03" transform="translate(467,240)"/>
<path d="M0 0 C-0.33 3.3 -0.66 6.6 -1 10 C-1.928125 9.95875 -2.85625 9.9175 -3.8125 9.875 C-7.15809719 9.72863661 -7.15809719 9.72863661 -10 12 C-10.33 10.68 -10.66 9.36 -11 8 C-9.35 7.67 -7.7 7.34 -6 7 C-6 5.35 -6 3.7 -6 2 C-2.25 0 -2.25 0 0 0 Z " fill="#FC831A" transform="translate(302,203)"/>
<path d="M0 0 C4.95839497 4.79844675 4.95839497 4.79844675 5.09765625 8.8203125 C5.08605469 9.91085937 5.07445312 11.00140625 5.0625 12.125 C5.05347656 13.22070312 5.04445313 14.31640625 5.03515625 15.4453125 C5.02355469 16.28835938 5.01195312 17.13140625 5 18 C5.93972656 17.96519531 5.93972656 17.96519531 6.8984375 17.9296875 C7.71570313 17.91164063 8.53296875 17.89359375 9.375 17.875 C10.59316406 17.84019531 10.59316406 17.84019531 11.8359375 17.8046875 C14 18 14 18 16 20 C14.20841511 20.02696365 12.41671527 20.04637917 10.625 20.0625 C9.62726563 20.07410156 8.62953125 20.08570313 7.6015625 20.09765625 C5 20 5 20 3 19 C3 14.71 3 10.42 3 6 C2.34 6 1.68 6 1 6 C0.67 4.02 0.34 2.04 0 0 Z " fill="#3B1902" transform="translate(358,319)"/>
<path d="M0 0 C0.66 0.33 1.32 0.66 2 1 C1.67 2.65 1.34 4.3 1 6 C1.66 6.33 2.32 6.66 3 7 C3 5.68 3 4.36 3 3 C5.3125 1.1875 5.3125 1.1875 8 0 C8.99 0.33 9.98 0.66 11 1 C9.83593677 2.16406323 8.67129061 3.32754865 7.50390625 4.48828125 C6.4596661 5.53794602 5.42652024 6.59871848 4.40234375 7.66796875 C2.97138652 9.14814809 1.48847779 10.57767678 0 12 C-0.66 12 -1.32 12 -2 12 C-2.05395478 10.37536158 -2.09277195 8.75021459 -2.125 7.125 C-2.14820313 6.22007812 -2.17140625 5.31515625 -2.1953125 4.3828125 C-2 2 -2 2 0 0 Z " fill="#281407" transform="translate(280,265)"/>
<path d="M0 0 C1 3 1 3 0.4375 5 C-1.5395271 7.75064641 -3.98030499 8.55306281 -7 10 C-7.99 11.485 -7.99 11.485 -9 13 C-9.99 13 -10.98 13 -12 13 C-12.12375 13.61875 -12.2475 14.2375 -12.375 14.875 C-13 17 -13 17 -15 19 C-17.125 18.625 -17.125 18.625 -19 18 C-17.625 16.5 -17.625 16.5 -16 15 C-15.34 15 -14.68 15 -14 15 C-13.67 14.01 -13.34 13.02 -13 12 C-11.328125 10.3515625 -11.328125 10.3515625 -9.25 8.625 C-6.00331159 5.87465784 -2.96094821 3.05347784 0 0 Z " fill="#371703" transform="translate(205,232)"/>
<path d="M0 0 C4.2742558 1.5830577 6.26531794 4.50568404 9 8 C7.54257537 8.08096803 6.08387193 8.13917774 4.625 8.1875 C3.81289062 8.22230469 3.00078125 8.25710937 2.1640625 8.29296875 C1.44992188 8.19628906 0.73578125 8.09960938 0 8 C-0.66 7.01 -1.32 6.02 -2 5 C-2 5.66 -2 6.32 -2 7 C-3.32 6.67 -4.64 6.34 -6 6 C-5.195625 5.38125 -4.39125 4.7625 -3.5625 4.125 C-0.96125481 2.25835959 -0.96125481 2.25835959 0 0 Z " fill="#321B0A" transform="translate(214,223)"/>
<path d="M0 0 C0.66 0 1.32 0 2 0 C2 3.3 2 6.6 2 10 C3.175625 9.896875 4.35125 9.79375 5.5625 9.6875 C10.68015584 9.64188809 13.15385432 11.7948786 17 15 C16.67 15.66 16.34 16.32 16 17 C15.21625 16.525625 14.4325 16.05125 13.625 15.5625 C10.30171044 13.58435145 8.19789946 12.81978995 4.375 12.4375 C2.93125 12.293125 1.4875 12.14875 0 12 C0 8.04 0 4.08 0 0 Z " fill="#E08331" transform="translate(363,325)"/>
<path d="M0 0 C4.29 0.33 8.58 0.66 13 1 C13 1.66 13 2.32 13 3 C13.85271484 3.07347656 13.85271484 3.07347656 14.72265625 3.1484375 C27.37338262 4.37338262 27.37338262 4.37338262 31 8 C24.11914052 7.34664916 17.66453965 5.73500725 11 3.9375 C9.93910156 3.65583984 8.87820312 3.37417969 7.78515625 3.08398438 C5.18882599 2.39396867 2.59386689 1.69920797 0 1 C0 0.67 0 0.34 0 0 Z " fill="#D57929" transform="translate(179,458)"/>
<path d="M0 0 C-3.12089682 1.13660609 -6.24737961 2.25704207 -9.375 3.375 C-10.24511719 3.69210937 -11.11523438 4.00921875 -12.01171875 4.3359375 C-17.94321677 6.44491457 -23.79515748 7.93941453 -30 9 C-30 8.34 -30 7.68 -30 7 C-28.35 7 -26.7 7 -25 7 C-25 6.34 -25 5.68 -25 5 C-24.38253906 4.89042969 -23.76507813 4.78085937 -23.12890625 4.66796875 C-17.21750254 3.5612676 -11.65796855 2.02483537 -6 0 C-3 -1 -3 -1 0 0 Z " fill="#DD7F31" transform="translate(331,454)"/>
<path d="M0 0 C0.66 0.33 1.32 0.66 2 1 C1.45276317 4.37462715 0.9451 6.08235 -1 9 C-1.66 8.67 -2.32 8.34 -3 8 C-2.67 9.65 -2.34 11.3 -2 13 C-2.928125 12.835 -3.85625 12.67 -4.8125 12.5 C-7.95621353 11.92251612 -7.95621353 11.92251612 -11 12 C-10.37351562 11.38511719 -9.74703125 10.77023438 -9.1015625 10.13671875 C-8.28429687 9.32847656 -7.46703125 8.52023438 -6.625 7.6875 C-5.40683594 6.48673828 -5.40683594 6.48673828 -4.1640625 5.26171875 C-1.87395158 2.99990063 -1.87395158 2.99990063 0 0 Z " fill="#EA8227" transform="translate(328,227)"/>
<path d="M0 0 C0.6875 1.625 0.6875 1.625 1 4 C-0.375 7.0625 -0.375 7.0625 -2 10 C-2.33 10.99 -2.66 11.98 -3 13 C-2.34 13 -1.68 13 -1 13 C-1.33 13.66 -1.66 14.32 -2 15 C-4.3306218 15.35179197 -6.66435067 15.68330179 -9 16 C-10.3530895 16.62559654 -11.69241523 17.28414785 -13 18 C-12.62488281 17.56429687 -12.24976563 17.12859375 -11.86328125 16.6796875 C-10.79316177 15.43435954 -9.72560789 14.18682391 -8.66015625 12.9375 C-7.63569193 11.74188988 -6.60339548 10.55287946 -5.55859375 9.375 C-2.96797952 6.4054601 -1.21571201 3.75765532 0 0 Z " fill="#E68128" transform="translate(344,208)"/>
<path d="M0 0 C3 0.25 3 0.25 5 2.25 C7.65537372 2.81520003 10.29144713 2.98788198 13 3.25 C8.95878094 5.94414604 5.74629425 5.8069631 1 5.25 C-2.5625 3.75 -2.5625 3.75 -5 2.25 C-3 0.25 -3 0.25 0 0 Z " fill="#2F1605" transform="translate(115,353.75)"/>
<path d="M0 0 C10.89350292 0.44282532 21.36773209 2.72999503 32 5 C32 5.33 32 5.66 32 6 C21.1779965 6.19325006 9.72943169 5.01086611 0 0 Z " fill="#D97D2C" transform="translate(272,33)"/>
<path d="M0 0 C0 3.38023517 -0.87455622 5.83468937 -2 9 C-2.66 8.67 -3.32 8.34 -4 8 C-4.350625 8.804375 -4.70125 9.60875 -5.0625 10.4375 C-7 13 -7 13 -10.6875 13.8125 C-11.780625 13.874375 -12.87375 13.93625 -14 14 C-11.03750349 9.92656729 -7.61640648 6.79433834 -3.8046875 3.55078125 C-1.92288746 1.97318991 -1.92288746 1.97318991 0 0 Z " fill="#291506" transform="translate(128,305)"/>
<path d="M0 0 C0 0.33 0 0.66 0 1 C-1.03060547 1.03867188 -1.03060547 1.03867188 -2.08203125 1.078125 C-2.98308594 1.13484375 -3.88414062 1.1915625 -4.8125 1.25 C-5.70582031 1.29640625 -6.59914063 1.3428125 -7.51953125 1.390625 C-10.66007976 2.16216133 -11.19757019 3.41924823 -13 6 C-16.1875 6.25 -16.1875 6.25 -19 6 C-13.52407775 -1.70685353 -8.73102333 -1.25455481 0 0 Z " fill="#361B05" transform="translate(336,191)"/>
<path d="M0 0 C0.99 0.33 1.98 0.66 3 1 C4.03485877 3.31808364 5.0355414 5.65175298 6 8 C6.66 8.33 7.32 8.66 8 9 C8 10.32 8 11.64 8 13 C8.66 13 9.32 13 10 13 C10 13.99 10 14.98 10 16 C10.99 16 11.98 16 13 16 C13 17.98 13 19.96 13 22 C9.93745623 18.31806536 7.32844161 14.51115405 4.8125 10.4375 C4.11769531 9.32246094 3.42289063 8.20742188 2.70703125 7.05859375 C1.32314549 4.57899982 0.4527404 2.76374363 0 0 Z " fill="#DE7F2E" transform="translate(55,352)"/>
<path d="M0 0 C0.45890625 0.44472656 0.9178125 0.88945312 1.390625 1.34765625 C2.00421875 1.91355469 2.6178125 2.47945312 3.25 3.0625 C3.85328125 3.63097656 4.4565625 4.19945312 5.078125 4.78515625 C6.91968568 6.2268454 6.91968568 6.2268454 9.09375 5.78125 C11.37835819 4.84493517 13.0983693 3.56205379 15 2 C14.67 3.65 14.34 5.3 14 7 C13.34 7 12.68 7 12 7 C12 7.66 12 8.32 12 9 C6.375 9.25 6.375 9.25 3 7 C2.67 6.01 2.34 5.02 2 4 C1.01 3.34 0.02 2.68 -1 2 C-0.67 1.34 -0.34 0.68 0 0 Z " fill="#DB7B2B" transform="translate(244,240)"/>
<path d="M0 0 C0.33 0.66 0.66 1.32 1 2 C-2.28419026 7.02287922 -4.94805706 9.67031034 -10 13 C-10.95231597 15.12119128 -10.95231597 15.12119128 -11 17 C-12.32 16.34 -13.64 15.68 -15 15 C-10.05 10.05 -5.1 5.1 0 0 Z " fill="#2D1303" transform="translate(217,147)"/>
<path d="M0 0 C0.33 0 0.66 0 1 0 C1.33 2.31 1.66 4.62 2 7 C1.01 6.67 0.02 6.34 -1 6 C-1.2475 6.804375 -1.495 7.60875 -1.75 8.4375 C-3.26078647 12.74324143 -5.10188856 16.85364007 -7 21 C-7.66 21 -8.32 21 -9 21 C-6.76686274 13.55620912 -3.59727921 6.88023305 0 0 Z " fill="#D57828" transform="translate(54,149)"/>
<path d="M0 0 C5.56472574 0.56002831 9.9267939 2.6345243 14.875 5.0625 C16.050625 5.62807617 16.050625 5.62807617 17.25 6.20507812 C19.16995053 7.12993234 21.085439 8.06403978 23 9 C19.8018885 10.03387225 19.24105866 10.11048522 16 8.625 C15.01 8.08875 14.02 7.5525 13 7 C10.76474965 6.31363375 10.76474965 6.31363375 9 6 C9 5.34 9 4.68 9 4 C8.443125 3.87625 7.88625 3.7525 7.3125 3.625 C4.77885636 2.94023145 2.42078968 2.00866237 0 1 C0 0.67 0 0.34 0 0 Z " fill="#E1802B" transform="translate(323,45)"/>
<path d="M0 0 C0.77377515 2.6489091 1.01735423 3.91708535 0.4375 6.6875 C-0.036875 7.450625 -0.51125 8.21375 -1 9 C-4 9.625 -4 9.625 -7 10 C-7.99 11.485 -7.99 11.485 -9 13 C-9.66 13 -10.32 13 -11 13 C-9.46356148 9.31930113 -7.21849055 7.01224796 -4.375 4.25 C-3.55773437 3.45078125 -2.74046875 2.6515625 -1.8984375 1.828125 C-0.95871094 0.92320312 -0.95871094 0.92320312 0 0 Z " fill="#D97A2A" transform="translate(282,218)"/>
<path d="M0 0 C0 3.34419152 -0.47519394 4.06840321 -2.375 6.6875 C-2.81585938 7.31011719 -3.25671875 7.93273437 -3.7109375 8.57421875 C-4.13632812 9.04472656 -4.56171875 9.51523438 -5 10 C-5.66 10 -6.32 10 -7 10 C-8.6446674 12.46326712 -8.6446674 12.46326712 -10 15 C-11.32 14.67 -12.64 14.34 -14 14 C-9.38 9.38 -4.76 4.76 0 0 Z " fill="#321B05" transform="translate(292,221)"/>
<path d="M0 0 C1.3125 2.0625 1.3125 2.0625 2 4 C-0.55788182 5.27894091 -1.29859303 4.77183056 -4 4 C-5.66519519 3.65939189 -7.33157466 3.32441604 -9 3 C-9 2.01 -9 1.02 -9 0 C-5.68989426 -1.10336858 -3.3186024 -1.13531135 0 0 Z " fill="#FB851A" transform="translate(230,226)"/>
<path d="M0 0 C0.33 0 0.66 0 1 0 C1 2.31 1 4.62 1 7 C0.01 7.33 -0.98 7.66 -2 8 C-2 10.97 -2 13.94 -2 17 C-4.46581131 13.30128304 -4.68709609 10.29232971 -4 6 C-2.89890219 3.63338706 -1.68358925 2.04071424 0 0 Z " fill="#452005" transform="translate(259,254)"/>
<path d="M0 0 C-2.97 2.97 -5.94 5.94 -9 9 C-9.66 7.68 -10.32 6.36 -11 5 C-10.01 4.67 -9.02 4.34 -8 4 C-8 3.01 -8 2.02 -8 1 C-4.59449725 -1.06762667 -4.18836538 -1.04709135 0 0 Z " fill="#E37E25" transform="translate(204,234)"/>
<path d="M0 0 C0.66 0.33 1.32 0.66 2 1 C-0.21928194 3.90802461 -1.92969143 5.95312762 -5 8 C-6.32 8 -7.64 8 -9 8 C-9.33 8.99 -9.66 9.98 -10 11 C-11.98 11.33 -13.96 11.66 -16 12 C-11.87977917 8.56648264 -7.51801894 5.5338977 -3.109375 2.48828125 C-1.11164876 1.16835606 -1.11164876 1.16835606 0 0 Z " fill="#300F01" transform="translate(377,427)"/>
<path d="M0 0 C0.66 0.33 1.32 0.66 2 1 C1.67 1.99 1.34 2.98 1 4 C1.66 4.33 2.32 4.66 3 5 C2.071875 5.45375 1.14375 5.9075 0.1875 6.375 C-3.03921389 7.9421633 -3.03921389 7.9421633 -6 10 C-6.6875 8.25 -6.6875 8.25 -7 6 C-5.25360904 2.87487934 -3.37921168 1.19907511 0 0 Z " fill="#FB861E" transform="translate(311,192)"/>
<path d="M0 0 C2 0 2 0 3.625 1.5 C4.07875 1.995 4.5325 2.49 5 3 C5.33 2.34 5.66 1.68 6 1 C8.0625 0.375 8.0625 0.375 10 0 C9.07161713 1.31896465 8.13194268 2.62998689 7.1875 3.9375 C6.40439453 5.03384766 6.40439453 5.03384766 5.60546875 6.15234375 C4 8 4 8 1 9 C0.67 6.03 0.34 3.06 0 0 Z " fill="#22140A" transform="translate(228,168)"/>
<path d="M0 0 C0.33 0.99 0.66 1.98 1 3 C0.34 3.66 -0.32 4.32 -1 5 C-1.28875 5.845625 -1.5775 6.69125 -1.875 7.5625 C-3 10 -3 10 -4.875 10.75 C-5.926875 10.87375 -5.926875 10.87375 -7 11 C-8.11375 11.2784375 -8.11375 11.2784375 -9.25 11.5625 C-9.8275 11.706875 -10.405 11.85125 -11 12 C-10.67 11.34 -10.34 10.68 -10 10 C-9.34 10 -8.68 10 -8 10 C-8 9.34 -8 8.68 -8 8 C-5.625 5.375 -5.625 5.375 -3 3 C-2.34 3 -1.68 3 -1 3 C-0.67 2.01 -0.34 1.02 0 0 Z " fill="#351A07" transform="translate(255,164)"/>
<path d="M0 0 C0 4.06354909 -1.52984762 5.05170581 -4.25 8 C-5.03890625 8.86625 -5.8278125 9.7325 -6.640625 10.625 C-8.6648172 12.66259744 -10.65017084 14.36158701 -13 16 C-13.66 15.67 -14.32 15.34 -15 15 C-10.05 10.05 -5.1 5.1 0 0 Z " fill="#341200" transform="translate(409,399)"/>
<path d="M0 0 C0.33 0 0.66 0 1 0 C1.31270072 5.94131377 0.67275618 9.55168933 -2 15 C-2.350625 15.94875 -2.70125 16.8975 -3.0625 17.875 C-4 20 -4 20 -6 21 C-4.11380178 13.96354423 -2.13072305 6.96640656 0 0 Z " fill="#321303" transform="translate(460,306)"/>
<path d="M0 0 C1.32 0.33 2.64 0.66 4 1 C2.54550599 2.0055761 1.08627557 3.00430435 -0.375 4 C-1.59316406 4.8353125 -1.59316406 4.8353125 -2.8359375 5.6875 C-5 7 -5 7 -7 7 C-7.625 5.125 -7.625 5.125 -8 3 C-7.34 2.34 -6.68 1.68 -6 1 C-2.875 1.375 -2.875 1.375 0 2 C0 1.34 0 0.68 0 0 Z " fill="#EA8228" transform="translate(368,431)"/>
<path d="M0 0 C0.33 0.99 0.66 1.98 1 3 C-0.8125 5.6875 -0.8125 5.6875 -3 8 C-3.66 8 -4.32 8 -5 8 C-5.33 8.99 -5.66 9.98 -6 11 C-7.65 11.33 -9.3 11.66 -11 12 C-9.625 10 -9.625 10 -8 8 C-7.34 8 -6.68 8 -6 8 C-5.7525 7.4225 -5.505 6.845 -5.25 6.25 C-3.83316683 3.6997003 -2.12372463 1.98214299 0 0 Z " fill="#3E1D06" transform="translate(277,236)"/>
<path d="M0 0 C0.33 0 0.66 0 1 0 C1 3.63 1 7.26 1 11 C0.34 11 -0.32 11 -1 11 C-0.938125 11.9075 -0.87625 12.815 -0.8125 13.75 C-1.01672076 17.28982642 -1.64551835 18.44931155 -4 21 C-3.39700836 13.76410027 -1.8849413 7.00629124 0 0 Z " fill="#D67829" transform="translate(38,188)"/>
<path d="M0 0 C0 4.62073667 -2.7490738 7.38422033 -5.5 10.9375 C-7 12 -7 12 -9.1875 11.6875 C-9.785625 11.460625 -10.38375 11.23375 -11 11 C-9.71034824 9.62437146 -8.37310707 8.29233607 -7 7 C-6.34 7 -5.68 7 -5 7 C-4.731875 6.401875 -4.46375 5.80375 -4.1875 5.1875 C-3.01506533 3.02775192 -1.80630718 1.64209744 0 0 Z " fill="#DA7B29" transform="translate(158,328)"/>
<path d="M0 0 C0.66 0.33 1.32 0.66 2 1 C1.34 3.64 0.68 6.28 0 9 C0.99 9.33 1.98 9.66 3 10 C2.34 10.66 1.68 11.32 1 12 C-0.98 9.69 -2.96 7.38 -5 5 C-4.01 4.67 -3.02 4.34 -2 4 C-2 3.34 -2 2.68 -2 2 C-1.34 2 -0.68 2 0 2 C0 1.34 0 0.68 0 0 Z " fill="#371A06" transform="translate(217,202)"/>
<path d="M0 0 C0 0.99 0 1.98 0 3 C-0.639375 3.2475 -1.27875 3.495 -1.9375 3.75 C-4.18741541 4.81562433 -4.18741541 4.81562433 -4.75 7.125 C-4.8325 7.74375 -4.915 8.3625 -5 9 C-5.66 9 -6.32 9 -7 9 C-7.33 9.99 -7.66 10.98 -8 12 C-9.32 11.67 -10.64 11.34 -12 11 C-8.17426612 7.07503959 -4.38002676 3.31820209 0 0 Z " fill="#381904" transform="translate(142,292)"/>
<path d="M0 0 C0 3.59857954 -0.95830515 5.09451118 -3 8 C-3.66 8 -4.32 8 -5 8 C-5.33 8.99 -5.66 9.98 -6 11 C-6.99 10.67 -7.98 10.34 -9 10 C-9.33 10.99 -9.66 11.98 -10 13 C-10.66 12.67 -11.32 12.34 -12 12 C-8 8 -4 4 0 0 Z " fill="#401D06" transform="translate(155,279)"/>
<path d="M0 0 C0 4.35779839 -2.27352027 6.73285856 -5 10 C-7.3125 11.9375 -7.3125 11.9375 -9 13 C-9.66 12.67 -10.32 12.34 -11 12 C-9.54234835 10.37438849 -8.08385614 8.74953066 -6.625 7.125 C-5.81289062 6.22007812 -5.00078125 5.31515625 -4.1640625 4.3828125 C-2.80923795 2.89103817 -1.42494565 1.42494565 0 0 Z " fill="#CC762A" transform="translate(231,250)"/>
<path d="M0 0 C0.66 0.99 1.32 1.98 2 3 C1.525625 3.45375 1.05125 3.9075 0.5625 4.375 C-1.09027808 5.93258204 -1.09027808 5.93258204 -2 8 C-3.66666667 8.33333333 -5.33333333 8.66666667 -7 9 C-7.33 9.66 -7.66 10.32 -8 11 C-8.66 11 -9.32 11 -10 11 C-8.55218207 7.55571735 -6.72305391 5.63869038 -3.875 3.25 C-3.15054687 2.63640625 -2.42609375 2.0228125 -1.6796875 1.390625 C-0.84824219 0.70226562 -0.84824219 0.70226562 0 0 Z " fill="#E18028" transform="translate(316,240)"/>
<path d="M0 0 C1.32 0 2.64 0 4 0 C4.33 0.66 4.66 1.32 5 2 C5.99 2 6.98 2 8 2 C8.28875 2.763125 8.5775 3.52625 8.875 4.3125 C9.96269013 7.15029308 9.96269013 7.15029308 12 10 C8.78727751 8.56006357 6.3793336 6.76981628 3.75 4.4375 C3.04359375 3.81746094 2.3371875 3.19742187 1.609375 2.55859375 C1.07828125 2.04425781 0.5471875 1.52992188 0 1 C0 0.67 0 0.34 0 0 Z " fill="#DE7E29" transform="translate(99,410)"/>
<path d="M0 0 C0.33 0.99 0.66 1.98 1 3 C-0.32 4.32 -1.64 5.64 -3 7 C-2.34 8.65 -1.68 10.3 -1 12 C-3 10.9375 -3 10.9375 -5 9 C-5.4375 5.4375 -5.4375 5.4375 -5 2 C-2 0 -2 0 0 0 Z " fill="#1C1007" transform="translate(262,264)"/>
<path d="M0 0 C0.99 0 1.98 0 3 0 C3 0.66 3 1.32 3 2 C4.32 2.33 5.64 2.66 7 3 C4.03 5.475 4.03 5.475 1 8 C1 7.01 1 6.02 1 5 C0.01 4.67 -0.98 4.34 -2 4 C-1.34 3.67 -0.68 3.34 0 3 C0 2.01 0 1.02 0 0 Z " fill="#EE8324" transform="translate(186,169)"/>
<path d="M0 0 C1.1446875 0.495 1.1446875 0.495 2.3125 1 C7.25174651 2.33945668 11.91463109 2.16287658 17 2 C16.67 2.99 16.34 3.98 16 5 C9.86946489 5.32712342 5.37330889 5.39366878 0 2 C0 1.34 0 0.68 0 0 Z " fill="#DF7F2F" transform="translate(110,356)"/>
<path d="M0 0 C0.33 1.32 0.66 2.64 1 4 C0.01 4.33 -0.98 4.66 -2 5 C-3.20882096 7.00016466 -3.20882096 7.00016466 -4 9 C-4.99 8.67 -5.98 8.34 -7 8 C-6.65930765 4.84859577 -6.41923159 3.39218439 -4.0625 1.1875 C-2 0 -2 0 0 0 Z " fill="#FB841A" transform="translate(224,186)"/>
<path d="M0 0 C0.33 0 0.66 0 1 0 C0.17037671 10.02097603 0.17037671 10.02097603 -2 14 C-2.99 14.66 -3.98 15.32 -5 16 C-4.54548816 14.26982492 -4.08621143 12.54090123 -3.625 10.8125 C-3.36976562 9.84957031 -3.11453125 8.88664063 -2.8515625 7.89453125 C-2.05233704 5.17789793 -1.0968638 2.60862825 0 0 Z " fill="#D5792B" transform="translate(44,171)"/>
<path d="M0 0 C1 2 1 2 0.36328125 4.34765625 C-0.15685547 5.69150391 -0.15685547 5.69150391 -0.6875 7.0625 C-1.02136719 7.96097656 -1.35523438 8.85945313 -1.69921875 9.78515625 C-3 12 -3 12 -5.14453125 12.80859375 C-5.75683594 12.87175781 -6.36914062 12.93492187 -7 13 C-5.35821735 8.22390502 -2.73453298 4.20617096 0 0 Z " fill="#2C0E02" transform="translate(438,360)"/>
<path d="M0 0 C0 3.84052912 -0.90767691 5.79177126 -3 9 C-6.1875 9.875 -6.1875 9.875 -9 10 C-8.06409496 8.8944811 -7.12620142 7.79064547 -6.1875 6.6875 C-5.66542969 6.07261719 -5.14335937 5.45773438 -4.60546875 4.82421875 C-3.12827531 3.14575321 -1.59960869 1.56117966 0 0 Z " fill="#D47825" transform="translate(268,232)"/>
<path d="M0 0 C1.65 1.32 3.3 2.64 5 4 C4.8125 5.8125 4.8125 5.8125 4 8 C1.4375 9.75 1.4375 9.75 -1 11 C-1 9.68 -1 8.36 -1 7 C-0.01 7 0.98 7 2 7 C1.01 6.34 0.02 5.68 -1 5 C-0.67 3.35 -0.34 1.7 0 0 Z " fill="#2C1307" transform="translate(307,183)"/>
<path d="M0 0 C5.14104664 1.17605642 8.9421191 2.2323897 12.0625 6.6875 C12.701875 7.780625 13.34125 8.87375 14 10 C10.19136032 8.65378455 7.34590149 6.94641263 4.1875 4.4375 C3.39730469 3.81746094 2.60710937 3.19742187 1.79296875 2.55859375 C0.90544922 1.78708984 0.90544922 1.78708984 0 1 C0 0.67 0 0.34 0 0 Z " fill="#D57D2B" transform="translate(113,422)"/>
<path d="M0 0 C1.65 0.33 3.3 0.66 5 1 C4.23883449 2.15227823 3.46567307 3.2966386 2.6875 4.4375 C2.25824219 5.07558594 1.82898438 5.71367187 1.38671875 6.37109375 C0 8 0 8 -3 9 C-1.125 2.25 -1.125 2.25 0 0 Z " fill="#261306" transform="translate(270,224)"/>
<path d="M0 0 C1.12894876 0.93274109 2.25300876 1.87140122 3.375 2.8125 C4.00148438 3.33457031 4.62796875 3.85664063 5.2734375 4.39453125 C7 6 7 6 9 9 C6.06216502 8.37046393 3.44994097 7.77409519 1 6 C0.25 2.875 0.25 2.875 0 0 Z " fill="#321706" transform="translate(298,174)"/>
<path d="M0 0 C0.33 0.99 0.66 1.98 1 3 C-0.28965176 4.37562854 -1.62689293 5.70766393 -3 7 C-3.66 7 -4.32 7 -5 7 C-5.33 7.99 -5.66 8.98 -6 10 C-8.0625 10.6875 -8.0625 10.6875 -10 11 C-6.79239749 7.19364503 -3.59253891 3.45436433 0 0 Z " fill="#361803" transform="translate(196,168)"/>
<path d="M0 0 C0 0.99 0 1.98 0 3 C-0.66 3 -1.32 3 -2 3 C-2.33 4.32 -2.66 5.64 -3 7 C-3.804375 7.12375 -4.60875 7.2475 -5.4375 7.375 C-6.7059375 7.684375 -6.7059375 7.684375 -8 8 C-8.33 8.66 -8.66 9.32 -9 10 C-9.66 9.67 -10.32 9.34 -11 9 C-9.33333333 7.33333333 -7.66666667 5.66666667 -6 4 C-5.46375 3.4225 -4.9275 2.845 -4.375 2.25 C-3 1 -3 1 0 0 Z " fill="#2C1607" transform="translate(235,131)"/>
<path d="M0 0 C0.33 0.99 0.66 1.98 1 3 C-0.97779587 6.8764799 -2.19654895 8.6600784 -6.25 10.375 C-7.61125 10.684375 -7.61125 10.684375 -9 11 C-8.60167969 10.54109375 -8.20335937 10.0821875 -7.79296875 9.609375 C-5.08857938 6.47728415 -2.42008229 3.36122541 0 0 Z " fill="#DD812E" transform="translate(195,288)"/>
<path d="M0 0 C4.2742558 1.5830577 6.26531794 4.50568404 9 8 C8.01 8 7.02 8 6 8 C5.67 7.34 5.34 6.68 5 6 C4.01 5.67 3.02 5.34 2 5 C2 4.34 2 3.68 2 3 C0.35 3.33 -1.3 3.66 -3 4 C-2.01 2.68 -1.02 1.36 0 0 Z " fill="#3C1D05" transform="translate(271,148)"/>
<path d="M0 0 C0.99 0.33 1.98 0.66 3 1 C2.34 3.64 1.68 6.28 1 9 C-0.65 7.68 -2.3 6.36 -4 5 C-2.25 1.125 -2.25 1.125 0 0 Z " fill="#FB8319" transform="translate(260,148)"/>
<path d="M0 0 C0.33 0.66 0.66 1.32 1 2 C1.99 2.33 2.98 2.66 4 3 C1.69 4.98 -0.62 6.96 -3 9 C-2.4140625 2.84765625 -2.4140625 2.84765625 -2 1 C-1.34 0.67 -0.68 0.34 0 0 Z " fill="#EA8024" transform="translate(212,146)"/>
<path d="M0 0 C0.66 1.32 1.32 2.64 2 4 C0.7934375 4.8971875 0.7934375 4.8971875 -0.4375 5.8125 C-3.22327984 7.80947276 -3.22327984 7.80947276 -4 11 C-4.99 11 -5.98 11 -7 11 C-5.22054913 6.95579349 -2.60470327 3.53921513 0 0 Z " fill="#E17F2B" transform="translate(84,105)"/>
<path d="M0 0 C0 0.66 0 1.32 0 2 C0.99 2 1.98 2 3 2 C3.33 2.99 3.66 3.98 4 5 C-0.23429756 3.68938409 -4.07407404 2.05643741 -8 0 C-8 -0.33 -8 -0.66 -8 -1 C-3.375 -2.25 -3.375 -2.25 0 0 Z " fill="#E27D27" transform="translate(151,443)"/>
<path d="M0 0 C0 3.72055546 -0.81297638 5.01106771 -3 8 C-6.1875 10.3125 -6.1875 10.3125 -9 12 C-9.66 11.67 -10.32 11.34 -11 11 C-7.33333333 7.33333333 -3.66666667 3.66666667 0 0 Z " fill="#D67A2C" transform="translate(219,263)"/>
<path d="M0 0 C0 0.99 0 1.98 0 3 C0.66 3 1.32 3 2 3 C1.67 4.32 1.34 5.64 1 7 C0.01 7 -0.98 7 -2 7 C-2.33 6.01 -2.66 5.02 -3 4 C-3.66 3.67 -4.32 3.34 -5 3 C-2.25 0 -2.25 0 0 0 Z " fill="#FD8317" transform="translate(236,233)"/>
<path d="M0 0 C0.99 0 1.98 0 3 0 C1.41078475 5.36095277 -0.18972938 10.70843973 -2 16 C-2.33 16 -2.66 16 -3 16 C-2.52013969 10.43109483 -1.70084819 5.32932432 0 0 Z " fill="#220900" transform="translate(41,172)"/>
<path d="M0 0 C-0.75 2.9375 -0.75 2.9375 -2 6 C-4 7 -4 7 -6 7 C-6.66 6.34 -7.32 5.68 -8 5 C-3.375 0 -3.375 0 0 0 Z " fill="#1F110A" transform="translate(226,141)"/>
<path d="M0 0 C1.32 0.66 2.64 1.32 4 2 C1.69 4.64 -0.62 7.28 -3 10 C-4 7 -4 7 -2.625 3.875 C-1 1 -1 1 0 0 Z " fill="#291508" transform="translate(164,316)"/>
<path d="M0 0 C1.32 0.33 2.64 0.66 4 1 C1.69 3.31 -0.62 5.62 -3 8 C-3.33 7.34 -3.66 6.68 -4 6 C-4.66 5.67 -5.32 5.34 -6 5 C-5.34 4.34 -4.68 3.68 -4 3 C-2.68 3 -1.36 3 0 3 C0 2.01 0 1.02 0 0 Z " fill="#231003" transform="translate(263,233)"/>
<path d="M0 0 C0.99 0.33 1.98 0.66 3 1 C0.03 3.97 -2.94 6.94 -6 10 C-6.33 9.01 -6.66 8.02 -7 7 C-6.34 7 -5.68 7 -5 7 C-4.67 5.35 -4.34 3.7 -4 2 C-3.01 2.33 -2.02 2.66 -1 3 C-0.67 2.01 -0.34 1.02 0 0 Z " fill="#2B1102" transform="translate(263,140)"/>
<path d="M0 0 C0 3 0 3 -1 5 C-3.28515625 5.4140625 -3.28515625 5.4140625 -6.0625 5.625 C-6.98160156 5.69976562 -7.90070313 5.77453125 -8.84765625 5.8515625 C-9.91306641 5.92503906 -9.91306641 5.92503906 -11 6 C-8.84733158 3.84733158 -7.15226256 3.06525538 -4.375 1.875 C-3.55773437 1.52179687 -2.74046875 1.16859375 -1.8984375 0.8046875 C-1.27195313 0.53914063 -0.64546875 0.27359375 0 0 Z " fill="#DA7D2A" transform="translate(166,47)"/>
<path d="M0 0 C2.52349243 3.12432397 4.27256146 6.38060496 6 10 C5.01 10 4.02 10 3 10 C2.67 9.34 2.34 8.68 2 8 C1.01 8 0.02 8 -1 8 C-0.67 5.36 -0.34 2.72 0 0 Z " fill="#DC7D2A" transform="translate(101,344)"/>
<path d="M0 0 C0.66 0 1.32 0 2 0 C2 0.66 2 1.32 2 2 C2.99 2 3.98 2 5 2 C3.25 7.75 3.25 7.75 1 10 C1.020625 9.278125 1.04125 8.55625 1.0625 7.8125 C1.00179441 5.08074862 0.60741465 2.65743909 0 0 Z " fill="#E8822A" transform="translate(100,324)"/>
<path d="M0 0 C3 1 3 1 4.6875 3.125 C6.274286 6.60081696 6.2222986 9.22092373 6 13 C5.34 13 4.68 13 4 13 C3.87882812 12.39671875 3.75765625 11.7934375 3.6328125 11.171875 C3.46523438 10.37265625 3.29765625 9.5734375 3.125 8.75 C2.96257812 7.96109375 2.80015625 7.1721875 2.6328125 6.359375 C2.00849925 4.03168856 1.15161458 2.10968048 0 0 Z " fill="#EB8429" transform="translate(341,195)"/>
<path d="M0 0 C0.33 0.99 0.66 1.98 1 3 C-0.97779587 6.8764799 -2.19654895 8.6600784 -6.25 10.375 C-7.61125 10.684375 -7.61125 10.684375 -9 11 C-8.60167969 10.54109375 -8.20335937 10.0821875 -7.79296875 9.609375 C-5.08857938 6.47728415 -2.42008229 3.36122541 0 0 Z " fill="#D17A2C" transform="translate(267,138)"/>
<path d="M0 0 C3.28465896 2.79196011 5.01321958 6.23196817 7 10 C7 10.66 7 11.32 7 12 C6.01 11.67 5.02 11.34 4 11 C3.67 10.01 3.34 9.02 3 8 C2.34 7.67 1.68 7.34 1 7 C0.59270772 4.67843403 0.25561323 2.3431213 0 0 Z " fill="#D87B2A" transform="translate(430,128)"/>
<path d="M0 0 C0.33 0.66 0.66 1.32 1 2 C-0.11799986 3.33920838 -1.24461897 4.67122556 -2.375 6 C-3.00148437 6.7425 -3.62796875 7.485 -4.2734375 8.25 C-4.84320313 8.8275 -5.41296875 9.405 -6 10 C-6.66 10 -7.32 10 -8 10 C-8 10.66 -8 11.32 -8 12 C-8.66 11.67 -9.32 11.34 -10 11 C-9.04882866 9.8274869 -8.08882991 8.66212985 -7.125 7.5 C-6.32449219 6.52546875 -6.32449219 6.52546875 -5.5078125 5.53125 C-5.01023438 5.0259375 -4.51265625 4.520625 -4 4 C-3.34 4 -2.68 4 -2 4 C-1.34 2.68 -0.68 1.36 0 0 Z " fill="#441F05" transform="translate(243,120)"/>
<path d="M0 0 C0.33 0.66 0.66 1.32 1 2 C-0.6875 5 -0.6875 5 -3 8 C-5.75 8.375 -5.75 8.375 -8 8 C-5.58443874 4.80800833 -3.31996462 2.25283313 0 0 Z " fill="#E5822B" transform="translate(113,78)"/>
<path d="M0 0 C-4.90924297 3.92739438 -7.73920552 4.43177893 -14 4 C-11.37350692 2.24900461 -9.38191413 1.30690675 -6.4375 0.3125 C-5.65246094 0.04050781 -4.86742187 -0.23148437 -4.05859375 -0.51171875 C-2 -1 -2 -1 0 0 Z " fill="#371404" transform="translate(325,457)"/>
<path d="M0 0 C0.66 0 1.32 0 2 0 C2.69670416 1.78810766 3.38211189 3.58062052 4.0625 5.375 C4.63677734 6.87160156 4.63677734 6.87160156 5.22265625 8.3984375 C6 11 6 11 5 13 C4.15930585 11.39967863 3.32768495 9.79458829 2.5 8.1875 C1.80390625 6.84751953 1.80390625 6.84751953 1.09375 5.48046875 C0 3 0 3 0 0 Z " fill="#D77F2D" transform="translate(45,330)"/>
<path d="M0 0 C0.33 0.66 0.66 1.32 1 2 C-0.125 4.5625 -0.125 4.5625 -2 7 C-4.6875 7.8125 -4.6875 7.8125 -7 8 C-6.02133662 6.85373678 -5.04205413 5.70800212 -4.0625 4.5625 C-3.51722656 3.92441406 -2.97195312 3.28632813 -2.41015625 2.62890625 C-1.63204305 1.73008851 -0.84063472 0.84063472 0 0 Z " fill="#DC7A26" transform="translate(171,314)"/>
<path d="M0 0 C0.33 1.32 0.66 2.64 1 4 C0.01 4 -0.98 4 -2 4 C-2.185625 5.2065625 -2.185625 5.2065625 -2.375 6.4375 C-2.58125 7.283125 -2.7875 8.12875 -3 9 C-3.99 9.495 -3.99 9.495 -5 10 C-5.66 9.34 -6.32 8.68 -7 8 C-4.69 5.36 -2.38 2.72 0 0 Z " fill="#D47A29" transform="translate(179,305)"/>
<path d="M0 0 C0.99 0 1.98 0 3 0 C4.27554815 1.46688037 5.54881117 2.93976866 6.71875 4.4921875 C8.11472845 6.27499979 8.11472845 6.27499979 11 8 C10.67 8.99 10.34 9.98 10 11 C8.33035479 9.35718838 6.6643536 7.71067239 5 6.0625 C4.071875 5.14597656 3.14375 4.22945312 2.1875 3.28515625 C0 1 0 1 0 0 Z " fill="#DE8231" transform="translate(298,173)"/>
<path d="M0 0 C0.33 0.99 0.66 1.98 1 3 C-1.25 5.0625 -1.25 5.0625 -4 7 C-5.32 6.67 -6.64 6.34 -8 6 C-5.36 4.02 -2.72 2.04 0 0 Z " fill="#240900" transform="translate(387,420)"/>
<path d="M0 0 C1.24546405 2.49092811 0.7767578 3.41080733 0 6 C0.66 6.33 1.32 6.66 2 7 C-1 7 -1 7 -2.38671875 5.6875 C-3.59114583 4.125 -4.79557292 2.5625 -6 1 C-4.7934375 1.0309375 -4.7934375 1.0309375 -3.5625 1.0625 C-1.06645115 1.29633621 -1.06645115 1.29633621 0 0 Z " fill="#E27D27" transform="translate(94,398)"/>
<path d="M0 0 C-3.465 2.97 -3.465 2.97 -7 6 C-7.33 4.35 -7.66 2.7 -8 1 C-3.375 -1.125 -3.375 -1.125 0 0 Z " fill="#311708" transform="translate(193,292)"/>
<path d="M0 0 C0.33 0 0.66 0 1 0 C0.88602456 2.43847451 0.75929026 4.87513174 0.625 7.3125 C0.5940625 8.00279297 0.563125 8.69308594 0.53125 9.40429688 C0.31875081 13.06990789 0.08066139 14.87900792 -2 18 C-2.054348 15.9377952 -2.09294961 13.87517184 -2.125 11.8125 C-2.14820313 10.66394531 -2.17140625 9.51539063 -2.1953125 8.33203125 C-2.00484152 5.08259628 -1.39360127 2.91339479 0 0 Z " fill="#C47229" transform="translate(465,274)"/>
<path d="M0 0 C0.66 0.33 1.32 0.66 2 1 C-0.64 3.64 -3.28 6.28 -6 9 C-6.33 8.34 -6.66 7.68 -7 7 C-6.67 6.34 -6.34 5.68 -6 5 C-5.34 5 -4.68 5 -4 5 C-3.896875 4.360625 -3.79375 3.72125 -3.6875 3.0625 C-3.460625 2.381875 -3.23375 1.70125 -3 1 C-2.01 0.67 -1.02 0.34 0 0 Z " fill="#260F02" transform="translate(231,248)"/>
<path d="M0 0 C1.67542976 0.28604898 3.34385343 0.61781233 5 1 C2.25 5.875 2.25 5.875 0 7 C-0.38133299 5.0085944 -0.71325582 3.00720923 -1 1 C-0.67 0.67 -0.34 0.34 0 0 Z " fill="#2A1708" transform="translate(323,226)"/>
<path d="M0 0 C1.32 0.33 2.64 0.66 4 1 C0.535 3.97 0.535 3.97 -3 7 C-3.1875 4.625 -3.1875 4.625 -3 2 C-2.01 1.34 -1.02 0.68 0 0 Z " fill="#241005" transform="translate(292,204)"/>
<path d="M0 0 C0.66 0.33 1.32 0.66 2 1 C1.67 1.66 1.34 2.32 1 3 C0.34 3 -0.32 3 -1 3 C-1 3.66 -1 4.32 -1 5 C-1.99 5 -2.98 5 -4 5 C-4.33 5.66 -4.66 6.32 -5 7 C-5.66 6.01 -6.32 5.02 -7 4 C-1.7265625 0.77734375 -1.7265625 0.77734375 0 0 Z " fill="#DC7B28" transform="translate(133,64)"/>
<path d="M0 0 C0.66 0.33 1.32 0.66 2 1 C0.35 4.3 -1.3 7.6 -3 11 C-3.33 11 -3.66 11 -4 11 C-4 9.35 -4 7.7 -4 6 C-3.34 6 -2.68 6 -2 6 C-2 4.35 -2 2.7 -2 1 C-1.34 0.67 -0.68 0.34 0 0 Z " fill="#E2822E" transform="translate(443,347)"/>
<path d="M0 0 C0.99 0.33 1.98 0.66 3 1 C-1.625 6.875 -1.625 6.875 -5 8 C-5 7.34 -5 6.68 -5 6 C-4.34 6 -3.68 6 -3 6 C-3 4.68 -3 3.36 -3 2 C-2.01 1.34 -1.02 0.68 0 0 Z " fill="#341503" transform="translate(213,266)"/>
<path d="M0 0 C2.31 0 4.62 0 7 0 C7.33 0.99 7.66 1.98 8 3 C7.34 3 6.68 3 6 3 C5.67 4.32 5.34 5.64 5 7 C4.731875 6.401875 4.46375 5.80375 4.1875 5.1875 C3.01506533 3.02775192 1.80630718 1.64209744 0 0 Z " fill="#DD7C25" transform="translate(263,118)"/>
<path d="M0 0 C3.79303725 1.00193437 6.71536341 1.81024227 10 4 C10 4.66 10 5.32 10 6 C6.40992874 4.66654496 3.20429093 3.1056769 0 1 C0 0.67 0 0.34 0 0 Z " fill="#D0772D" transform="translate(133,436)"/>
<path d="M0 0 C-1.65 1.65 -3.3 3.3 -5 5 C-5.66 3.35 -6.32 1.7 -7 0 C-4.3333581 -1.33332095 -2.83319697 -0.67102033 0 0 Z " fill="#E27E26" transform="translate(144,290)"/>
<path d="M0 0 C1.32 0.66 2.64 1.32 4 2 C1.03 4.475 1.03 4.475 -2 7 C-2.33 5.68 -2.66 4.36 -3 3 C-2.01 2.34 -1.02 1.68 0 1 C0 0.67 0 0.34 0 0 Z " fill="#2E1706" transform="translate(310,241)"/>
<path d="M0 0 C2.31 1.98 4.62 3.96 7 6 C5.68 6.33 4.36 6.66 3 7 C3 6.01 3 5.02 3 4 C2.01 4.33 1.02 4.66 0 5 C-0.33 4.34 -0.66 3.68 -1 3 C-0.67 2.01 -0.34 1.02 0 0 Z " fill="#DF7F2D" transform="translate(233,229)"/>
<path d="M0 0 C0.33 0 0.66 0 1 0 C1 1.65 1 3.3 1 5 C-1.31 5.66 -3.62 6.32 -6 7 C-5.02433888 5.83040013 -4.044375 4.66438823 -3.0625 3.5 C-2.51722656 2.8503125 -1.97195313 2.200625 -1.41015625 1.53125 C-0.71212891 0.77328125 -0.71212891 0.77328125 0 0 Z " fill="#CF762A" transform="translate(295,205)"/>
<path d="M0 0 C0.33 0 0.66 0 1 0 C1.31563182 5.26053037 0.66590937 8.44573816 -2 13 C-3 10 -3 10 -3 6 C-2.34 6 -1.68 6 -1 6 C-0.67 4.02 -0.34 2.04 0 0 Z " fill="#361B07" transform="translate(269,127)"/>
<path d="M0 0 C1.29640378 0.59393382 2.58698839 1.20057989 3.875 1.8125 C4.59429687 2.14894531 5.31359375 2.48539062 6.0546875 2.83203125 C8 4 8 4 10 7 C6.00118212 6.38479725 3.19641774 4.39731331 0 2 C0 1.34 0 0.68 0 0 Z " fill="#E17F2C" transform="translate(363,64)"/>
<path d="M0 0 C0.33 0 0.66 0 1 0 C1.3636198 4.24223102 0.5393228 6.58168085 -2 10 C-2.66 10 -3.32 10 -4 10 C-2.8905928 6.51329166 -1.73662334 3.22515763 0 0 Z " fill="#2F1102" transform="translate(443,350)"/>
<path d="M0 0 C0.99 0 1.98 0 3 0 C4.0625 1.8125 4.0625 1.8125 5 4 C4.67 4.99 4.34 5.98 4 7 C0 2.25 0 2.25 0 0 Z " fill="#2F1604" transform="translate(104,348)"/>
<path d="M0 0 C0.33 0.66 0.66 1.32 1 2 C0.06553465 4.03144641 -0.93224776 6.03533587 -2 8 C-2.66 8 -3.32 8 -4 8 C-4.33 7.01 -4.66 6.02 -5 5 C-3.35 3.35 -1.7 1.7 0 0 Z " fill="#DF7D26" transform="translate(185,299)"/>
<path d="M0 0 C4.29 0.99 8.58 1.98 13 3 C13 3.33 13 3.66 13 4 C7.66404866 4.27131956 4.38616179 4.4266889 0 1 C0 0.67 0 0.34 0 0 Z " fill="#472207" transform="translate(261,276)"/>
<path d="M0 0 C0.33 0.99 0.66 1.98 1 3 C1.66 3 2.32 3 3 3 C3.33 4.32 3.66 5.64 4 7 C1.13275314 6.42655063 0.1385485 6.1385485 -2 4 C-1.34 2.68 -0.68 1.36 0 0 Z " fill="#F18424" transform="translate(233,248)"/>
<path d="M0 0 C1 3 1 3 0.3125 5.125 C-1 7 -1 7 -3.125 7.75 C-4.053125 7.87375 -4.053125 7.87375 -5 8 C-2.25 2.25 -2.25 2.25 0 0 Z " fill="#231408" transform="translate(205,232)"/>
<path d="M0 0 C1.32 0.33 2.64 0.66 4 1 C0.535 3.97 0.535 3.97 -3 7 C-3 5.35 -3 3.7 -3 2 C-2.01 2.33 -1.02 2.66 0 3 C0 2.01 0 1.02 0 0 Z " fill="#E6822F" transform="translate(288,221)"/>
<path d="M0 0 C0.99 0.33 1.98 0.66 3 1 C2.60196439 3.88575819 2.20990931 4.82189513 -0.0625 6.75 C-0.701875 7.1625 -1.34125 7.575 -2 8 C-2 6.68 -2 5.36 -2 4 C-1.34 4 -0.68 4 0 4 C0 2.68 0 1.36 0 0 Z " fill="#E57E22" transform="translate(200,158)"/>
<path d="M0 0 C1.14926266 0.95421808 2.29430541 1.91352045 3.4375 2.875 C4.07558594 3.40867187 4.71367187 3.94234375 5.37109375 4.4921875 C7 6 7 6 8 8 C6.68 8 5.36 8 4 8 C3.566875 7.0409375 3.566875 7.0409375 3.125 6.0625 C2.17176549 3.84793921 2.17176549 3.84793921 0 3 C0 2.01 0 1.02 0 0 Z " fill="#E6832F" transform="translate(403,96)"/>
<path d="M0 0 C1.32 0.33 2.64 0.66 4 1 C0.535 3.97 0.535 3.97 -3 7 C-2.67 5.35 -2.34 3.7 -2 2 C-1.34 2 -0.68 2 0 2 C0 1.34 0 0.68 0 0 Z " fill="#230600" transform="translate(94,91)"/>
<path d="M0 0 C3.3 1.65 6.6 3.3 10 5 C7 6 7 6 4 5 C4 4.34 4 3.68 4 3 C2.68 3.33 1.36 3.66 0 4 C-0.33 3.34 -0.66 2.68 -1 2 C-0.67 1.34 -0.34 0.68 0 0 Z " fill="#E17E26" transform="translate(353,58)"/>
<path d="M0 0 C1.65 0 3.3 0 5 0 C5 0.66 5 1.32 5 2 C7.97 2.495 7.97 2.495 11 3 C10.67 3.66 10.34 4.32 10 5 C6.08788267 3.84414715 3.1254959 2.64465038 0 0 Z " fill="#2F1102" transform="translate(340,51)"/>
<path d="M0 0 C1.32 0.33 2.64 0.66 4 1 C3.01 1.33 2.02 1.66 1 2 C1 2.99 1 3.98 1 5 C-0.98 4.34 -2.96 3.68 -5 3 C-2 2 -2 2 0 2 C0 1.34 0 0.68 0 0 Z " fill="#F48424" transform="translate(116,418)"/>
<path d="M0 0 C0.66 0.33 1.32 0.66 2 1 C0 4 0 4 -3 5 C-4.20882096 7.00016466 -4.20882096 7.00016466 -5 9 C-5.33 8.01 -5.66 7.02 -6 6 C-4 4 -2 2 0 0 Z " fill="#411B04" transform="translate(253,317)"/>
<path d="M0 0 C0.33 0 0.66 0 1 0 C1 2.31 1 4.62 1 7 C0.01 7.33 -0.98 7.66 -2 8 C-1.125 1.125 -1.125 1.125 0 0 Z " fill="#2D1607" transform="translate(259,254)"/>
<path d="M0 0 C0.99 0.33 1.98 0.66 3 1 C3 1.66 3 2.32 3 3 C1.03852126 4.38938077 -0.96166576 5.7260411 -3 7 C-3 5.35 -3 3.7 -3 2 C-2.01 2.33 -1.02 2.66 0 3 C0 2.01 0 1.02 0 0 Z " fill="#DD7E2C" transform="translate(188,244)"/>
<path d="M0 0 C0.33 0.66 0.66 1.32 1 2 C-0.4375 4.625 -0.4375 4.625 -2 7 C-3.32 6.67 -4.64 6.34 -6 6 C-4.02 4.02 -2.04 2.04 0 0 Z " fill="#402108" transform="translate(284,229)"/>
<path d="M0 0 C2.125 0.9375 2.125 0.9375 4 2 C2.35 3.32 0.7 4.64 -1 6 C-1.33 4.35 -1.66 2.7 -2 1 C-1.34 0.67 -0.68 0.34 0 0 Z " fill="#221106" transform="translate(276,219)"/>
<path d="M0 0 C1.32 0.66 2.64 1.32 4 2 C2.35 3.65 0.7 5.3 -1 7 C-1.625 4.625 -1.625 4.625 -2 2 C-1.34 1.34 -0.68 0.68 0 0 Z " fill="#2B1508" transform="translate(215,186)"/>
<path d="M0 0 C1.65 1.65 3.3 3.3 5 5 C4.01 5.66 3.02 6.32 2 7 C1.34 7.66 0.68 8.32 0 9 C0 6.03 0 3.06 0 0 Z " fill="#231307" transform="translate(288,164)"/>
<path d="M0 0 C0.33 0.66 0.66 1.32 1 2 C1.99 2.66 2.98 3.32 4 4 C2.625 5.5 2.625 5.5 1 7 C0.34 7 -0.32 7 -1 7 C-1.625 4.625 -1.625 4.625 -2 2 C-1.34 1.34 -0.68 0.68 0 0 Z " fill="#E47E27" transform="translate(227,130)"/>
<path d="M0 0 C6.875 3.75 6.875 3.75 8 6 C5.125 5.8125 5.125 5.8125 2 5 C0.625 2.4375 0.625 2.4375 0 0 Z " fill="#DC7E2B" transform="translate(384,79)"/>
<path d="M0 0 C0.33 0.99 0.66 1.98 1 3 C-0.32 3.33 -1.64 3.66 -3 4 C-3 4.66 -3 5.32 -3 6 C-4.65 6.33 -6.3 6.66 -8 7 C-5.42215154 4.35247996 -3.08351902 2.05567935 0 0 Z " fill="#D4792A" transform="translate(125,69)"/>
<path d="M0 0 C0.66 0.33 1.32 0.66 2 1 C0.92892883 1.86949317 -0.15745944 2.72014205 -1.25 3.5625 C-1.85328125 4.03816406 -2.4565625 4.51382813 -3.078125 5.00390625 C-5 6 -5 6 -7.234375 5.65234375 C-7.81703125 5.43707031 -8.3996875 5.22179688 -9 5 C-7.54735962 4.1361871 -6.0876837 3.28419546 -4.625 2.4375 C-3.40683594 1.72400391 -3.40683594 1.72400391 -2.1640625 0.99609375 C-1.44992188 0.66738281 -0.73578125 0.33867188 0 0 Z " fill="#D97C2C" transform="translate(149,55)"/>
<path d="M0 0 C1.65 0 3.3 0 5 0 C3.35 1.98 1.7 3.96 0 6 C-1.125 2.25 -1.125 2.25 0 0 Z " fill="#D57827" transform="translate(157,273)"/>
<path d="M0 0 C0.66 0.33 1.32 0.66 2 1 C0.02 3.31 -1.96 5.62 -4 8 C-4.33 7.01 -4.66 6.02 -5 5 C-3.625 3.5 -3.625 3.5 -2 2 C-1.34 2 -0.68 2 0 2 C0 1.34 0 0.68 0 0 Z " fill="#421C02" transform="translate(341,212)"/>
<path d="M0 0 C0 2.83967231 -0.40267181 5.23735711 -1 8 C-2.32 8.33 -3.64 8.66 -5 9 C-4.34 8.67 -3.68 8.34 -3 8 C-2.65977214 6.00116131 -2.32670903 4.00109278 -2 2 C-1.34 1.34 -0.68 0.68 0 0 Z " fill="#221307" transform="translate(316,197)"/>
<path d="M0 0 C0.99 0 1.98 0 3 0 C2.25 5.75 2.25 5.75 0 8 C-1.125 2.25 -1.125 2.25 0 0 Z " fill="#FD8315" transform="translate(233,175)"/>
<path d="M0 0 C1.4540625 0.0309375 1.4540625 0.0309375 2.9375 0.0625 C1.2875 1.7125 -0.3625 3.3625 -2.0625 5.0625 C-2.0625 4.0725 -2.0625 3.0825 -2.0625 2.0625 C-2.7225 1.7325 -3.3825 1.4025 -4.0625 1.0625 C-3.0625 0.0625 -3.0625 0.0625 0 0 Z " fill="#DE7D27" transform="translate(206.0625,154.9375)"/>
<path d="M0 0 C2.97 1.98 2.97 1.98 6 4 C4.02 4.99 4.02 4.99 2 6 C2 5.34 2 4.68 2 4 C1.01 3.67 0.02 3.34 -1 3 C-0.67 2.01 -0.34 1.02 0 0 Z " fill="#E38028" transform="translate(378,74)"/>
<path d="M0 0 C-6.75 4 -6.75 4 -9 4 C-9 3.34 -9 2.68 -9 2 C-8.01 2 -7.02 2 -6 2 C-6 1.34 -6 0.68 -6 0 C-3.50907189 -1.24546405 -2.58919267 -0.7767578 0 0 Z " fill="#DE802C" transform="translate(361,439)"/>
<path d="M0 0 C1.875 0.3125 1.875 0.3125 4 1 C4.66 1.99 5.32 2.98 6 4 C4.35 3.67 2.7 3.34 1 3 C0.67 2.01 0.34 1.02 0 0 Z M-1 3 C-0.34 3 0.32 3 1 3 C1 3.66 1 4.32 1 5 C0.34 5 -0.32 5 -1 5 C-1 4.34 -1 3.68 -1 3 Z " fill="#291404" transform="translate(374,339)"/>
<path d="M0 0 C2.475 0.495 2.475 0.495 5 1 C3.35 2.65 1.7 4.3 0 6 C0 4.02 0 2.04 0 0 Z " fill="#DD7D26" transform="translate(106,320)"/>
<path d="M0 0 C0.99 0.66 1.98 1.32 3 2 C1.35 3.32 -0.3 4.64 -2 6 C-2.33 4.68 -2.66 3.36 -3 2 C-2.01 1.34 -1.02 0.68 0 0 Z " fill="#2E1809" transform="translate(293,259)"/>
<path d="M0 0 C-0.66 1.65 -1.32 3.3 -2 5 C-3.65 5 -5.3 5 -7 5 C-2.25 0 -2.25 0 0 0 Z " fill="#261206" transform="translate(193,246)"/>
<path d="M0 0 C1.32 0 2.64 0 4 0 C4 0.66 4 1.32 4 2 C4.66 2 5.32 2 6 2 C5.67 3.32 5.34 4.64 5 6 C3.35 4.02 1.7 2.04 0 0 Z " fill="#2B1402" transform="translate(240,235)"/>
<path d="M0 0 C0.33 1.32 0.66 2.64 1 4 C-1.375 5.5625 -1.375 5.5625 -4 7 C-4.66 6.67 -5.32 6.34 -6 6 C-5.38125 5.7525 -4.7625 5.505 -4.125 5.25 C-1.64931313 3.79371361 -1.04874998 2.62187494 0 0 Z " fill="#4A2309" transform="translate(228,191)"/>
<path d="M0 0 C1 3 1 3 0.25 5.625 C-1 8 -1 8 -4 9 C-2.80100302 5.9168649 -1.52299523 2.93720508 0 0 Z " fill="#D57B2C" transform="translate(59,140)"/>
<path d="M0 0 C0.33 1.32 0.66 2.64 1 4 C0.01 4.66 -0.98 5.32 -2 6 C-2.99 5.67 -3.98 5.34 -5 5 C-3.35 3.35 -1.7 1.7 0 0 Z " fill="#D87C2E" transform="translate(95,94)"/>
</svg>
